<svg xmlns="http://www.w3.org/2000/svg" xmlns:xlink="http://www.w3.org/1999/xlink" viewBox="0 0 159.88 154.16"><defs><style>.cls-1,.cls-12,.cls-33{fill:none;}.cls-2{isolation:isolate;}.cls-3{clip-path:url(#clip-path);}.cls-4{fill:#8fc66d;}.cls-5{fill:#ececec;opacity:0.3;}.cls-14,.cls-32,.cls-35,.cls-5{mix-blend-mode:soft-light;}.cls-6{fill:#c6c6c5;}.cls-7{fill:#cfcfcf;}.cls-8{fill:#519743;}.cls-9{fill:#d1d69c;}.cls-16,.cls-18,.cls-22,.cls-25,.cls-26,.cls-29,.cls-31,.cls-36,.cls-37,.cls-9{mix-blend-mode:multiply;}.cls-10{fill:#9ac34e;}.cls-11{fill:#ffe2b6;}.cls-12{stroke:#f7d09d;stroke-linecap:round;stroke-linejoin:round;stroke-width:0.7px;}.cls-13{fill:#c7b1a1;}.cls-13,.cls-21{mix-blend-mode:color-burn;}.cls-14,.cls-32{fill:#fff;}.cls-15{fill:#412743;}.cls-16{fill:#d4b2c1;}.cls-17{fill:#f4814a;}.cls-18{fill:#fdcca0;}.cls-19{fill:#ed5625;}.cls-20{fill:#693b1b;}.cls-21{fill:#f3d7b4;}.cls-22{fill:#dadcb2;}.cls-23{fill:#f16c3b;}.cls-24{fill:#f79d6d;}.cls-25{fill:#ffe5c9;}.cls-26{fill:#f2f1ec;}.cls-27{fill:#fdc17f;}.cls-28{fill:#e82d40;}.cls-29{fill:#e2c4d2;}.cls-30{fill:#ffcd55;}.cls-31{fill:#e5dcdd;}.cls-32{opacity:0.5;}.cls-33{stroke:#9ac34e;stroke-miterlimit:10;stroke-width:0.78px;}.cls-34,.cls-35{fill:#e3e2e2;}.cls-36{fill:#f5f5f5;}.cls-37{fill:#e4e0af;}.cls-38{fill:#f59688;}</style><clipPath id="clip-path" transform="translate(-0.17)"><path class="cls-1" d="M160.23,140.51a19.86,19.86,0,0,1-4.72,12.89c-8.56.4-18.16.76-28.24.76-27.79,0-50.1-2.91-68.19-8.9C33.91,136.93,16.34,122.39,6.84,102-6.83,72.73,0,39.37,27.56,0H160.23Z"/></clipPath></defs><g class="cls-2"><g id="Capa_2" data-name="Capa 2"><g id="Design"><g class="cls-3"><rect class="cls-4" width="159.53" height="154.16"/><circle class="cls-5" cx="77.47" cy="87.06" r="53.58" transform="matrix(0.99, -0.13, 0.13, 0.99, -10.96, 10.95)"/><path class="cls-5" d="M148.69,56.44a31,31,0,1,1-31-31A31,31,0,0,1,148.69,56.44Z" transform="translate(-0.17)"/><circle class="cls-5" cx="42.37" cy="102.28" r="31" transform="translate(-61.75 140.35) rotate(-87.62)"/><path class="cls-6" d="M127.68,89.17c0,3.61-20.89,6.54-46.66,6.54s-46.65-2.93-46.65-6.54S55.26,82.63,81,82.63,127.68,85.55,127.68,89.17Z" transform="translate(-0.17)"/><path class="cls-7" d="M123.74,89.17c0,2.58-19.13,4.67-42.72,4.67s-42.71-2.09-42.71-4.67S57.43,84.49,81,84.49,123.74,86.59,123.74,89.17Z" transform="translate(-0.17)"/><path class="cls-8" d="M41.34,81.42s-5.91-10.65-9.27-13.5c1.57,0,7.29,3.68,11.3,12.32Z" transform="translate(-0.17)"/><path class="cls-9" d="M32.07,67.92l.38.34c2.27,1,4.94,4.62,6.84,7.27a9.27,9.27,0,0,1,2,4.29A3.65,3.65,0,0,1,41.11,81l.23.41,2-1.18C39.36,71.6,33.64,67.91,32.07,67.92Z" transform="translate(-0.17)"/><path class="cls-10" d="M42.82,80.58s-7.47-9.73-8-19.94a131.73,131.73,0,0,0,10.58,19Z" transform="translate(-0.17)"/><path class="cls-9" d="M41.55,76.62C37.36,71,36,63.15,36,63.08c-.73-1.52-1.13-2.44-1.13-2.44.48,10.21,8,19.94,8,19.94l1.38-.49C44,79.58,42.62,78.07,41.55,76.62Z" transform="translate(-0.17)"/><path class="cls-10" d="M45.22,80.34S42.75,67,43.39,62.65c-1.18,1-3.19,5-.89,18.13Z" transform="translate(-0.17)"/><path class="cls-9" d="M43.76,79.45q-.34-3-.7-5.93a34.63,34.63,0,0,1-.23-5.85c0-.76.07-1.53.16-2.29a4,4,0,0,1,.3-1.23,12.53,12.53,0,0,1,.1-1.5c-1.18,1-3.19,5-.89,18.13l1.4-.22C43.85,80.19,43.81,79.82,43.76,79.45Z" transform="translate(-0.17)"/><path class="cls-8" d="M42.93,80.86s-3.18-11.42-6-18.29c0,0,4.48,1.51,8,17.92Z" transform="translate(-0.17)"/><path class="cls-9" d="M36.93,62.57c.09.2.17.4.25.6a18.68,18.68,0,0,1,1.31,1.63,18.27,18.27,0,0,1,1.58,2.48,37.71,37.71,0,0,1,2.36,5.37,26.89,26.89,0,0,1,1.66,5.67,13.74,13.74,0,0,1,.09,2.31l.73-.14C41.41,64.08,36.93,62.57,36.93,62.57Z" transform="translate(-0.17)"/><path class="cls-11" d="M55.26,84a9.68,9.68,0,1,1-12.49-6.28A9.89,9.89,0,0,1,55.26,84Z" transform="translate(-0.17)"/><path class="cls-12" d="M41.66,78.41s-8,5.07-1.7,16.19" transform="translate(-0.17)"/><path class="cls-12" d="M44.09,77.55s9.39-1,11.5,11.62" transform="translate(-0.17)"/><path class="cls-12" d="M47.06,97.14s-6.63-6.09-4.54-19.07c0,0-7.44,8.09,1.14,18.65" transform="translate(-0.17)"/><path class="cls-12" d="M51.73,95.48s1.3-8.91-8.52-17.66c0,0,11,1.47,11,15.08" transform="translate(-0.17)"/><path class="cls-12" d="M49.49,96.61S45.9,83.16,42.86,78" transform="translate(-0.17)"/><path class="cls-13" d="M42.77,77.75l-.1,0a10.42,10.42,0,0,1,1.74.64,16.13,16.13,0,0,1,4.82,3.49C51.7,84.54,53.5,88.63,52,92.17a6.6,6.6,0,0,1-3,3.25,10.41,10.41,0,0,1-3.9,1.11,10.84,10.84,0,0,1-2.66-.1,9.39,9.39,0,0,0,7.11.35,10.11,10.11,0,0,0-6.76-19Z" transform="translate(-0.17)"/><path class="cls-14" d="M41.07,90.17a3.37,3.37,0,0,0,.07-1.61,11.38,11.38,0,0,1-.64-2.93,4.47,4.47,0,0,1,.39-1.43,2.33,2.33,0,0,0,.21-1.55,2.28,2.28,0,0,0-.84-1l-.12-.09a5.7,5.7,0,0,0-1.92,6.55,5.84,5.84,0,0,0,2.32,3A1.79,1.79,0,0,0,41.07,90.17Z" transform="translate(-0.17)"/><path class="cls-8" d="M89.83,62.22s3.88,9.16-5.93,17.58C83.9,79.8,81,66.76,89.83,62.22Z" transform="translate(-0.17)"/><path class="cls-10" d="M83.92,79.78c9.78-8.41,5.91-17.56,5.91-17.56l-.08,0Z" transform="translate(-0.17)"/><path class="cls-8" d="M94.6,67.49S94.65,77,83.74,80C83.74,80,85.84,67.62,94.6,67.49Z" transform="translate(-0.17)"/><path class="cls-10" d="M83.76,80C94.65,77,94.6,67.49,94.6,67.49h-.08Z" transform="translate(-0.17)"/><path class="cls-8" d="M82.3,63.34s-5.8,7.53,1,16.54C83.35,79.88,89.19,68.76,82.3,63.34Z" transform="translate(-0.17)"/><path class="cls-10" d="M83.33,79.86c-6.82-9-1-16.52-1-16.52l.06,0Z" transform="translate(-0.17)"/><path class="cls-15" d="M91.91,90.34a10.74,10.74,0,1,1-6.65-14A11,11,0,0,1,91.91,90.34Z" transform="translate(-0.17)"/><path class="cls-14" d="M75.29,86a3.94,3.94,0,0,0,1.16-1.37c.51-1,.66-2.14,1.44-3a5.32,5.32,0,0,1,1.31-1A2,2,0,0,0,80.42,78s0-.1,0-.15a6.34,6.34,0,0,0-6.17,4.41,6.63,6.63,0,0,0,0,4.2A2.21,2.21,0,0,0,75.29,86Z" transform="translate(-0.17)"/><path class="cls-16" d="M85.26,76.31l-.12,0A12.06,12.06,0,0,1,86.23,78a17.81,17.81,0,0,1,1.84,6.34c.37,4-.85,8.79-4.62,10.84a7.36,7.36,0,0,1-4.82.82,11.63,11.63,0,0,1-4.17-1.7,12.38,12.38,0,0,1-2.27-1.9,10.5,10.5,0,0,0,6,5.16,11.22,11.22,0,0,0,7.08-21.28Z" transform="translate(-0.17)"/><path class="cls-8" d="M56.26,62.74S62.68,66,60.47,74.88C60.47,74.88,53,69.11,56.26,62.74Z" transform="translate(-0.17)"/><path class="cls-10" d="M60.48,74.86c2.19-8.9-4.22-12.12-4.22-12.12l0,.06Z" transform="translate(-0.17)"/><path class="cls-8" d="M64.16,62.56s3.32,6.37-3.68,12.31C60.48,74.87,57.75,65.79,64.16,62.56Z" transform="translate(-0.17)"/><path class="cls-10" d="M60.5,74.86c7-5.94,3.66-12.3,3.66-12.3l-.06,0Z" transform="translate(-0.17)"/><path class="cls-8" d="M49.86,67.59s1.39,7,10.57,7.3C60.43,74.89,56.88,66.1,49.86,67.59Z" transform="translate(-0.17)"/><path class="cls-10" d="M60.41,74.89c-9.16-.26-10.55-7.3-10.55-7.3h.06Z" transform="translate(-0.17)"/><path class="cls-17" d="M68.61,79.93c2.14,6.06,3.53,21,1.37,21.74S59.45,89.89,57.32,83.83,56.51,73,59.37,72C63.13,70.71,66.48,73.86,68.61,79.93Z" transform="translate(-0.17)"/><path class="cls-18" d="M59.37,72a3.26,3.26,0,0,0-.92.49,6.13,6.13,0,0,1,4.78,2c.82.82,5.39,6.59,6.51,20.43A2.5,2.5,0,0,1,67,97.73a4.47,4.47,0,0,1-2.19-1.15l-.58-.49C66.63,99.5,69,102,70,101.67c2.16-.76.77-15.68-1.37-21.74S63.13,70.71,59.37,72Z" transform="translate(-0.17)"/><path class="cls-19" d="M56.28,78.92A4.81,4.81,0,0,1,58,78a5,5,0,0,1,1.9-.32l0,0-1.78.65-1.8.61Z" transform="translate(-0.17)"/><path class="cls-19" d="M59.37,80.87a5.12,5.12,0,0,1,1.73-1A5.17,5.17,0,0,1,63,79.58l0,0-1.83.66-1.84.63Z" transform="translate(-0.17)"/><path class="cls-19" d="M63.47,76.92A4.11,4.11,0,0,1,65,76a4.4,4.4,0,0,1,1.75-.26v0l-1.63.6L63.48,77Z" transform="translate(-0.17)"/><path class="cls-19" d="M64.22,80.74a6.37,6.37,0,0,1,2-1,6.66,6.66,0,0,1,2.19-.42l0,0-2.08.75-2.09.72Z" transform="translate(-0.17)"/><path class="cls-19" d="M57.26,83.67a4.81,4.81,0,0,1,1.66-.93,4.86,4.86,0,0,1,1.88-.31v0l-1.76.64-1.77.6Z" transform="translate(-0.17)"/><path class="cls-19" d="M63.41,84.59a7.7,7.7,0,0,1,4.26-1.5v0l-2.12.76-2.14.73Z" transform="translate(-0.17)"/><path class="cls-19" d="M59.43,88.43a6,6,0,0,1,1.87-1A6.34,6.34,0,0,1,63.39,87l0,0-2,.72-2,.68Z" transform="translate(-0.17)"/><path class="cls-19" d="M64.3,88.52a5.49,5.49,0,0,1,3.58-1.26v0l-1.78.64-1.8.61Z" transform="translate(-0.17)"/><path class="cls-19" d="M66.12,90.24a6.85,6.85,0,0,1,2-1.08,7.16,7.16,0,0,1,2.27-.45l0,0-2.16.78-2.17.74Z" transform="translate(-0.17)"/><path class="cls-19" d="M66.43,92.24a6.41,6.41,0,0,1-3.88,1.36l0,0,1.94-.71,2-.66Z" transform="translate(-0.17)"/><path class="cls-19" d="M65.92,94.71a4.54,4.54,0,0,1,1.58-.92,4.71,4.71,0,0,1,1.81-.28v0l-1.69.62-1.7.57Z" transform="translate(-0.17)"/><path class="cls-19" d="M68.45,96.23a4.53,4.53,0,0,1-3.24,1.14v0l1.61-.59,1.63-.55Z" transform="translate(-0.17)"/><path class="cls-19" d="M68.62,99.07a2.24,2.24,0,0,1,1-.73A2.19,2.19,0,0,1,71,98.25v0l-1.16.43-1.17.4Z" transform="translate(-0.17)"/><path class="cls-14" d="M61.43,86.79c.41-1.75-.6-3.31-1.17-4.9-.51-1.44-1.42-3.07-1.18-4.66a3.52,3.52,0,0,1,1.49-2.57,3.46,3.46,0,0,0-1.44.19c-1.94.68-2.84,3.88-1.39,8a31.71,31.71,0,0,0,2.64,5.25A2.27,2.27,0,0,0,61.43,86.79Z" transform="translate(-0.17)"/><path class="cls-8" d="M116.58,82.74c-.86-3.26-1.93-4.58-1.75-8.94.2-4.66-.6-7.81-5.62-8.83-4.81-1-6.85,1-9,5.65-1.59,3.49-2.07,4.76-4,7-2.21,2.51-4.09,5.14-5.3,11.07-1.45,7.18,3.22,11.62,10.57,13.11s13.76-.35,15.21-7.53C117.68,89.54,117.86,87.54,116.58,82.74Z" transform="translate(-0.17)"/><path class="cls-10" d="M114.82,82.71c-.69-2.88-1.58-4-1.39-7.91.21-4.13-.43-6.91-4.64-7.77-4-.82-5.76,1-7.6,5.1-1.37,3.1-1.78,4.23-3.42,6.2-1.88,2.24-3.49,4.6-4.56,9.86-1.3,6.38,2.59,10.26,8.76,11.52s11.57-.45,12.86-6.82C115.67,88.72,115.84,87,114.82,82.71Z" transform="translate(-0.17)"/><path class="cls-20" d="M111.55,89.65c-1,4.86-5,8.16-8.85,7.37s-6.25-5.38-5.27-10.24,4.95-8.16,8.85-7.37S112.53,84.79,111.55,89.65Z" transform="translate(-0.17)"/><path class="cls-14" d="M100.15,87.3a3,3,0,0,0,2.81-.8,6.77,6.77,0,0,0,.94-1.71c.4-1.05.69-2.73,1.8-3.32a2.85,2.85,0,0,1,.76-.26,3.58,3.58,0,0,0-.54-.14c-3.16-.64-6.36,1.91-7.33,5.75A4.16,4.16,0,0,0,100.15,87.3Z" transform="translate(-0.17)"/><path class="cls-21" d="M108.46,80.35a9.66,9.66,0,0,1,2,4.81,10.17,10.17,0,0,1-3.16,8.53,5.69,5.69,0,0,1-7.4.32c-1.56-1.2-2-3-2.64-4.66.12,3.81,2.28,7,5.48,7.67,3.9.79,7.86-2.51,8.85-7.37C112.33,85.78,111,82.09,108.46,80.35Z" transform="translate(-0.17)"/><path class="cls-22" d="M116.58,82.74c-.86-3.26-1.93-4.58-1.75-8.94.2-4.66-.6-7.81-5.62-8.83a9.8,9.8,0,0,0-2.76-.22l.26.14a7.73,7.73,0,0,1,2.78,2.61c1.63,2.74.78,5.7.9,8.7.15,3.62,4.17,9,2.76,16.85a6.9,6.9,0,0,1-3,4.5c-3.17,2.33-6.76,2.12-10.42.53a12.51,12.51,0,0,1-5.55-4.58c-1.67-2.34-3.22-4.85-3.22-4.85-1.45,7.18,3.22,11.62,10.57,13.11s13.76-.35,15.21-7.53C117.68,89.54,117.86,87.54,116.58,82.74Z" transform="translate(-0.17)"/><path class="cls-14" d="M96.51,79.4a2.17,2.17,0,0,0,1.82.35,4.77,4.77,0,0,0,2.77-1.53,14.1,14.1,0,0,0,2.82-6A11.85,11.85,0,0,1,106.69,67c-2.62-.21-4.21,1-5.52,3.89-1.1,2.41-1.1,3.44-2.43,5a14,14,0,0,0-2.35,3.47Z" transform="translate(-0.17)"/><path class="cls-23" d="M62.16,36.77c3,6,6.35,21.19,4.22,22.25S54,48.24,51,42.26s-2.23-11,.59-12.43C55.3,28,59.17,30.79,62.16,36.77Z" transform="translate(-0.17)"/><path class="cls-10" d="M54.82,29.36a5,5,0,0,0-3.22.47,4.16,4.16,0,0,0-1.9,2.09,10,10,0,0,0,2.74-1.11A9.45,9.45,0,0,0,54.82,29.36Z" transform="translate(-0.17)"/><path class="cls-24" d="M61,37.65C63.68,43,67.14,56.47,65.5,57.28s-10.4-10-13.09-15.42-2.34-9.73-.17-10.81C55.09,29.62,58.31,32.28,61,37.65Z" transform="translate(-0.17)"/><path class="cls-17" d="M58.6,38.84c2.69,5.38,7.6,18.09,6.88,18.45S57.49,46,54.8,40.67,51.33,31.5,52.29,31C53.55,30.39,55.92,33.47,58.6,38.84Z" transform="translate(-0.17)"/><path class="cls-25" d="M51.6,29.83a3.69,3.69,0,0,0-.89.63,6.39,6.39,0,0,1,5.19,1.42c1,.75,5.49,5.51,8.44,19.65.31,1.49.25,3.89-1.58,3.83a4.76,4.76,0,0,1-2.41-.91L59.69,54c3,3.2,5.7,5.5,6.69,5,2.13-1.06-1.24-16.27-4.22-22.25S55.3,28,51.6,29.83Z" transform="translate(-0.17)"/><path class="cls-14" d="M57.05,44.39c.07-1.8-1.11-3.3-1.91-4.87s-1.82-3-1.88-4.62a3.3,3.3,0,0,1,.92-2.7,2.53,2.53,0,0,0-1.28.29c-1.65.82-1.91,4.11.11,8.16a36.69,36.69,0,0,0,3.31,5.11A2,2,0,0,0,57.05,44.39Z" transform="translate(-0.17)"/><path class="cls-11" d="M103,32.83a7,7,0,1,1,7-7A7,7,0,0,1,103,32.83Zm0-12.43a5.46,5.46,0,1,0,5.46,5.46A5.47,5.47,0,0,0,103,20.4Z" transform="translate(-0.17)"/><path class="cls-11" d="M79.79,51.74c-2.24-2-6.19-1.54-7.37.4-.54.88.13,2.34,1.3,3.74a29.51,29.51,0,0,1-3.56,3.94c-.81.62,2.8,3.69,3.07,2.7.36-1.33,2.24-3.11,3.36-4.06,1.55,1,3.11,1.57,3.93.91C82.83,57.48,82,53.72,79.79,51.74Z" transform="translate(-0.17)"/><path class="cls-26" d="M79.79,51.74a5.22,5.22,0,0,0-2.1-1.09l.15.12a8.85,8.85,0,0,1,1.58,1.28,7.05,7.05,0,0,1,1.51,2.86,3.35,3.35,0,0,1-.24,2.56,2.25,2.25,0,0,1-1.76,1.32c-1,0-1.62-.87-2.51-1.06-1.28-.29-2.23,1.09-3,1.92-.39.45-.95,1.24-1.65,1.13a1.9,1.9,0,0,1-1-.64,1.61,1.61,0,0,1-.33-.54l-.27.22c-.81.62,2.8,3.69,3.07,2.7.36-1.33,2.24-3.11,3.36-4.06,1.55,1,3.11,1.57,3.93.91C82.83,57.48,82,53.72,79.79,51.74Z" transform="translate(-0.17)"/><path class="cls-27" d="M75.27,55.39s3-1.66,2.66-2.27a2.55,2.55,0,0,0-3.74-.33C73.7,53.27,73.47,54.29,75.27,55.39Z" transform="translate(-0.17)"/><path class="cls-27" d="M77.06,57s1.29-2.84,1.92-2.92c.33,0,2,2,.79,3.66C79.36,58.26,78.37,58.62,77.06,57Z" transform="translate(-0.17)"/><path class="cls-14" d="M75.81,52.73a3.57,3.57,0,0,1,1.3.15,1.94,1.94,0,0,0,1.3,0,.64.64,0,0,0,.29-.9,3.55,3.55,0,0,0-.47-.32c-1.66-1-3.86-.84-4.82.52A3,3,0,0,0,75.81,52.73Z" transform="translate(-0.17)"/><path class="cls-11" d="M62.33,15.23c-1.58,1.84-1.18,5,.4,6,.73.43,1.9-.13,3-1.1A24.27,24.27,0,0,1,69,23c.51.66,3-2.31,2.16-2.52-1.09-.28-2.54-1.79-3.33-2.68.83-1.27,1.24-2.54.69-3.2C67,12.7,63.92,13.39,62.33,15.23Z" transform="translate(-0.17)"/><path class="cls-26" d="M62.33,15.23a4.32,4.32,0,0,0-.86,1.71l.09-.12a7.93,7.93,0,0,1,1-1.29,5.8,5.8,0,0,1,2.31-1.26,2.75,2.75,0,0,1,2.09.17,1.8,1.8,0,0,1,1.08,1.42c0,.77-.68,1.32-.83,2.05-.22,1,.9,1.79,1.59,2.37.37.32,1,.76.93,1.33a1.5,1.5,0,0,1-.51.86,1.44,1.44,0,0,1-.43.28A1.68,1.68,0,0,1,69,23c.51.66,3-2.31,2.16-2.52-1.09-.28-2.54-1.79-3.33-2.68.83-1.27,1.24-2.54.69-3.2C67,12.7,63.92,13.39,62.33,15.23Z" transform="translate(-0.17)"/><path class="cls-27" d="M65.34,18.86S64,16.45,63.47,16.73a2.06,2.06,0,0,0-.23,3C63.63,20.15,64.47,20.33,65.34,18.86Z" transform="translate(-0.17)"/><path class="cls-27" d="M66.6,17.4s-2.31-1-2.39-1.53a2.19,2.19,0,0,1,3-.69C67.62,15.51,67.92,16.31,66.6,17.4Z" transform="translate(-0.17)"/><path class="cls-14" d="M63.18,18.45a2.87,2.87,0,0,1,.1-1.05,1.61,1.61,0,0,0,0-1.06.53.53,0,0,0-.74-.23,3.22,3.22,0,0,0-.25.39c-.78,1.35-.64,3.14.47,3.9A2.43,2.43,0,0,0,63.18,18.45Z" transform="translate(-0.17)"/><path class="cls-28" d="M115.75,67.67a2.26,2.26,0,0,1-1.9-1,3.44,3.44,0,0,1-.37-3,2,2,0,0,0-.22-2.08l-.07-.12c-1-1.67-.77-2.73-.43-3.32A2.58,2.58,0,0,1,115.09,57a3,3,0,0,1,.42,0l.49,0a1.63,1.63,0,0,0,1.11-.36,2.16,2.16,0,0,1,.45-.28,3.43,3.43,0,0,1,1.52-.42,1.9,1.9,0,0,1,1.57.77,4,4,0,0,1,.52,3,2.92,2.92,0,0,0,.48,2.36l0,.08a3.13,3.13,0,0,1,.33,3.25,2.44,2.44,0,0,1-2,1.19,1.84,1.84,0,0,1-.33,0,2.7,2.7,0,0,0-.6-.07,2,2,0,0,0-1.19.41l-.14.09A3.78,3.78,0,0,1,115.75,67.67Zm-.66-9.48a1.43,1.43,0,0,0-1.25.55c-.26.43-.1,1.17.42,2.08l.07.11a3.2,3.2,0,0,1,.3,3.16,2.23,2.23,0,0,0,.24,1.85,1,1,0,0,0,.88.49,2.61,2.61,0,0,0,1.32-.47l.14-.09a3.16,3.16,0,0,1,1.85-.6,4.3,4.3,0,0,1,.84.09H120a1.17,1.17,0,0,0,1-.57,2.06,2.06,0,0,0-.33-2l0-.08a4.18,4.18,0,0,1-.61-3.31,2.72,2.72,0,0,0-.3-1.94.67.67,0,0,0-.59-.28,2.27,2.27,0,0,0-1,.28,1.86,1.86,0,0,0-.28.18,2.84,2.84,0,0,1-1.83.6,5,5,0,0,1-.64,0Z" transform="translate(-0.17)"/><path class="cls-10" d="M83.54,29.38a3.44,3.44,0,0,1-2.92-1.57,5.33,5.33,0,0,1-.57-4.6A3.1,3.1,0,0,0,79.73,20l-.11-.19c-1.5-2.56-1.19-4.18-.67-5.09A4,4,0,0,1,82.53,13c.21,0,.43,0,.64,0a7.06,7.06,0,0,0,.75,0,2.47,2.47,0,0,0,1.7-.56,4.84,4.84,0,0,1,.69-.43,5.34,5.34,0,0,1,2.34-.63,2.92,2.92,0,0,1,2.4,1.17,6.1,6.1,0,0,1,.8,4.63,4.46,4.46,0,0,0,.73,3.62l.07.12c1.4,2.4,1,4,.5,5A3.69,3.69,0,0,1,90,27.76a2.76,2.76,0,0,1-.51-.05,5.47,5.47,0,0,0-.93-.1,3,3,0,0,0-1.81.63l-.22.14A5.83,5.83,0,0,1,83.54,29.38Zm-1-14.53a2.24,2.24,0,0,0-1.93.85c-.38.67-.15,1.8.66,3.19l.1.17a5,5,0,0,1,.47,4.84,3.41,3.41,0,0,0,.36,2.84,1.54,1.54,0,0,0,1.35.74,4,4,0,0,0,2-.72l.2-.13a4.82,4.82,0,0,1,2.83-.92,6.74,6.74,0,0,1,1.3.13.41.41,0,0,0,.14,0A1.78,1.78,0,0,0,91.5,25c.42-.73.25-1.79-.49-3.07l-.07-.11A6.37,6.37,0,0,1,90,16.73a4.25,4.25,0,0,0-.46-3,1,1,0,0,0-.9-.43,3.57,3.57,0,0,0-1.5.44,3.24,3.24,0,0,0-.43.27,4.31,4.31,0,0,1-2.8.91,8.71,8.71,0,0,1-1-.06A2.83,2.83,0,0,0,82.53,14.85Z" transform="translate(-0.17)"/><path class="cls-10" d="M36.89,37.14s-2.42-1.85-3.9-1.9c0,0-.06-.73,1.15-1.2a30,30,0,0,0,3.11,2.54Z" transform="translate(-0.17)"/><path class="cls-22" d="M33,35.24a.92.92,0,0,1,.26-.61S35,35.77,35.93,36.2c1.1.52,1.32.38,1.32.38l-.36.56S34.47,35.29,33,35.24Z" transform="translate(-0.17)"/><path class="cls-28" d="M36.62,38.27c-.34-.67-.66-1.83,1.19-2.37s4.2,2.51,5.85,4.32,6.14,3.47,6.24,4.11c.07.46-3.54,1.67-8.43-1.95C40.07,41.34,37.67,40.31,36.62,38.27Z" transform="translate(-0.17)"/><path class="cls-14" d="M39.07,37.83a3.41,3.41,0,0,0,2.55,1c-1-1.16-2.3-2.57-3.33-2.27a2.07,2.07,0,0,0-.47.2C38.31,36.89,38.77,37.51,39.07,37.83Z" transform="translate(-0.17)"/><path class="cls-29" d="M46.61,43.73a14.41,14.41,0,0,1-4.33-1.83c-.67-.44-1.29-.94-1.92-1.44a18.23,18.23,0,0,1-1.74-1.54,7.68,7.68,0,0,1-1.32-1.74,4,4,0,0,1-.34-.9,1.4,1.4,0,0,0-.34,2c1.05,2,3.45,3.07,4.85,4.11C46.36,46,50,44.79,49.9,44.33a.46.46,0,0,0-.17-.24A7.53,7.53,0,0,1,46.61,43.73Z" transform="translate(-0.17)"/><path class="cls-10" d="M120.31,26.72s2.43-1.85,3.9-1.9c0,0,.06-.73-1.15-1.19A30.12,30.12,0,0,1,120,26.16Z" transform="translate(-0.17)"/><path class="cls-22" d="M124.21,24.82a.88.88,0,0,0-.26-.6s-1.78,1.14-2.68,1.56c-1.1.53-1.31.38-1.32.38l.36.56S122.74,24.87,124.21,24.82Z" transform="translate(-0.17)"/><path class="cls-28" d="M120.58,27.85c.35-.67.66-1.82-1.18-2.36s-4.2,2.5-5.86,4.31-6.14,3.48-6.24,4.11c-.07.46,3.55,1.67,8.43-1.95C117.13,30.93,119.53,29.9,120.58,27.85Z" transform="translate(-0.17)"/><path class="cls-14" d="M118.13,27.41a3.41,3.41,0,0,1-2.55,1c1-1.16,2.3-2.56,3.34-2.26a2,2,0,0,1,.46.19C118.89,26.47,118.43,27.09,118.13,27.41Z" transform="translate(-0.17)"/><path class="cls-29" d="M110.59,33.31a14.57,14.57,0,0,0,4.34-1.83c.66-.44,1.28-.94,1.91-1.44a18.08,18.08,0,0,0,1.75-1.53,8,8,0,0,0,1.32-1.75,4.23,4.23,0,0,0,.33-.9,1.4,1.4,0,0,1,.34,2c-1,2-3.45,3.08-4.85,4.11-4.88,3.62-8.5,2.41-8.43,1.95a.44.44,0,0,1,.18-.24A7.5,7.5,0,0,0,110.59,33.31Z" transform="translate(-0.17)"/><path class="cls-28" d="M92.67,38.33c0,7.77-5,12.27-12.42,12.27S67.76,46.14,67.76,38.37c0-5.22,1.64-8.79,5.7-11a13.45,13.45,0,0,1,13.11-.23C90.15,29.09,92.67,32.32,92.67,38.33Z" transform="translate(-0.17)"/><path class="cls-30" d="M75.72,34c.16-.28,2.22.13,1.74,1S75.51,34.32,75.72,34Z" transform="translate(-0.17)"/><path class="cls-30" d="M75.7,42c-.15-.28,1.3-1.8,1.77-.94S75.9,42.38,75.7,42Z" transform="translate(-0.17)"/><path class="cls-30" d="M74.85,39.14c-.06-.32,1.79-1.32,2-.35S74.92,39.56,74.85,39.14Z" transform="translate(-0.17)"/><path class="cls-30" d="M75,36.49c.06-.31,2.14-.59,2,.37S74.91,36.91,75,36.49Z" transform="translate(-0.17)"/><path class="cls-30" d="M84.73,34c-.15-.28-2.22.13-1.73,1S84.94,34.32,84.73,34Z" transform="translate(-0.17)"/><path class="cls-30" d="M84.75,41.51c.15-.28-1.3-1.81-1.77-.94S84.55,41.88,84.75,41.51Z" transform="translate(-0.17)"/><path class="cls-30" d="M85.46,39.14c.06-.32-1.79-1.32-2-.35S85.39,39.56,85.46,39.14Z" transform="translate(-0.17)"/><path class="cls-30" d="M85.51,36.49c-.06-.31-2.14-.59-2,.37S85.59,36.91,85.51,36.49Z" transform="translate(-0.17)"/><path class="cls-11" d="M85.48,28.19a11.5,11.5,0,0,0-11.41.21c-3.54,1.93-5,5.09-5,9.73C69.1,45,73.5,49,80,49S90.8,45,90.8,38.1C90.8,32.76,88.6,29.89,85.48,28.19ZM71.33,38.29c0-3.61,1.14-6.07,4-7.58a10.54,10.54,0,0,1,2.91-1.07,28.69,28.69,0,0,1,.75,5.1,4.28,4.28,0,0,0,0,6.71,51.83,51.83,0,0,1-.53,5.2C74.14,46.08,71.33,43.11,71.33,38.29Zm10.76,8.27c-.15-1.33-.45-3-.65-5.09a3.91,3.91,0,0,0,1.67-3.38,3.83,3.83,0,0,0-1.8-3.45,50.28,50.28,0,0,1,.56-5,9.49,9.49,0,0,1,2.47.91c2.48,1.32,4.22,3.56,4.22,7.72C88.56,42.86,86,45.8,82.09,46.56Z" transform="translate(-0.17)"/><path class="cls-31" d="M86.59,27.21A13.34,13.34,0,0,0,81,25.63l.35.17a17,17,0,0,1,5.52,3.8,10,10,0,0,1,2.25,4.93,14,14,0,0,1-.1,6,9.75,9.75,0,0,1-3.16,4.91c-1.63,1.33-4.84,1.93-6.89,2-6.5.18-8.51-2.86-10.48-4.5,1.61,4.93,6,7.67,11.8,7.67,7.44,0,12.43-4.5,12.43-12.27C92.69,32.36,90.17,29.12,86.59,27.21Z" transform="translate(-0.17)"/><path class="cls-14" d="M72.54,39a2.8,2.8,0,0,0,2.19-3c0-1.66-.35-3.23.41-4.79a23.47,23.47,0,0,0,1.31-2.41.14.14,0,0,1,0-.06,12.72,12.72,0,0,0-2.41,1C71,31.32,69.8,34,69.8,37.87a11.14,11.14,0,0,0,.08,1.32A8.17,8.17,0,0,0,72.54,39Z" transform="translate(-0.17)"/><path class="cls-8" d="M118.72,92.48c-4.43,2.31-5.53-1-4.41-.9a3.63,3.63,0,0,0,3-1.31c-5.51-.21-4.36-4.65-3.07-4.12C117.93,87.66,118,86,118,86c-.34-.22-1.54.26-2.63-2s.51-3.19,1-2.67c2.37,2.46,3.82,1.78,3.68.79s-.14-3.62,1.08-3.7,1.69-.87,2.26-1.16a1.38,1.38,0,0,1,1.84.67c.34.68.19,1.9,1,2.77s-1,2.45-1.78,3.1-.12,2.11,3.29,1.83c.71-.06,1.32,1.68-1,2.67s-2.9-.16-3.3-.23c0,0-1,1.35,2.7,2.63,1.32.46-.74,4.55-5,1.07a3.61,3.61,0,0,0,1.41,3c.88.71-2.1,2.43-3.9-2.23" transform="translate(-0.17)"/><path class="cls-32" d="M117.67,83.71c-.41,0,.16,1,.41,1.31a2.22,2.22,0,0,0,1.63.61,2.06,2.06,0,0,0,1.4-1.16,23.17,23.17,0,0,0,1.34-3.22,4.86,4.86,0,0,0,.5-2.33,2.42,2.42,0,0,1-1.26.52c-1.14.13-1.23,2.78-1.13,3.77S119.55,83.69,117.67,83.71Z" transform="translate(-0.17)"/><line class="cls-33" x1="115.96" y1="99.35" x2="123.39" y2="79.62"/><path class="cls-22" d="M126.23,90.65c-3.74-1.28-2.7-2.63-2.7-2.63.4.07,1,1.22,3.3.23s1.72-2.73,1-2.67c-3.41.28-4-1.18-3.29-1.83s2.64-2.23,1.78-3.1-.71-2.09-1-2.77a1.38,1.38,0,0,0-1-.77l.06.25a9.58,9.58,0,0,1,.22,2.82,25,25,0,0,1-1.84,6.66,7.35,7.35,0,0,1-1.63,2.94,11.5,11.5,0,0,1-2.6,1.69,4.33,4.33,0,0,1-4,.12h-.22c-1.12,0,0,3.21,4.41.9,1.8,4.66,4.78,2.94,3.9,2.23a3.61,3.61,0,0,1-1.41-3C125.49,95.2,127.55,91.11,126.23,90.65Z" transform="translate(-0.17)"/><path class="cls-8" d="M58.17,94.57c-2,4.59-4.88,2.77-4,2.1a3.61,3.61,0,0,0,1.52-2.94c-4.4,3.32-6.32-.84-5-1.24C54.51,91.34,53.51,90,53.51,90c-.4,0-1,1.18-3.31.11s-1.62-2.78-.91-2.7c3.4.4,4.08-1,3.35-1.72s-2.4-2.71-1.51-3.55.77-1.74,1-2.32A1.37,1.37,0,0,1,54,79.12c.69.31,1.36,1.35,2.57,1.47s.76,2.55.59,3.53,1.25,1.71,3.71-.67c.51-.49,2.08.47.91,2.71s-2.35,1.71-2.7,1.91c0,0,0,1.71,3.75.33,1.31-.49,2.31,4-3.21,4a3.62,3.62,0,0,0,3,1.42c1.12,0-.09,3.2-4.43.74" transform="translate(-0.17)"/><path class="cls-32" d="M51.8,88.45c-.31.26.77.69,1.15.76a2.25,2.25,0,0,0,1.64-.57A2,2,0,0,0,55,86.86a23.58,23.58,0,0,0-1-3.35,4.89,4.89,0,0,0-1.09-2.11,2.39,2.39,0,0,1-.65,1.2c-.8.82.82,2.93,1.52,3.63S53.24,87.24,51.8,88.45Z" transform="translate(-0.17)"/><line class="cls-33" x1="60.34" y1="101.53" x2="53.6" y2="81.55"/><path class="cls-22" d="M62.82,88.4c-3.7,1.38-3.75-.33-3.75-.33.35-.2,1.53.32,2.7-1.91s-.4-3.2-.91-2.71c-2.46,2.38-3.88,1.65-3.71.67s.63-3.4-.59-3.53S54.68,79.43,54,79.12a1.34,1.34,0,0,0-1.24,0l.21.15a9.52,9.52,0,0,1,2,2,24.93,24.93,0,0,1,2.79,6.31,7.27,7.27,0,0,1,.6,3.31,11.38,11.38,0,0,1-.93,3,4.34,4.34,0,0,1-3,2.62l-.17.14c-.9.67,2,2.49,4-2.1,4.34,2.46,5.55-.76,4.43-.74a3.62,3.62,0,0,1-3-1.42C65.13,92.39,64.13,87.91,62.82,88.4Z" transform="translate(-0.17)"/><path class="cls-7" d="M97.22,129.31c-4.79,3-31,1.48-32.36-.12-1.2-1.39,0-3.76,0-3.76h32.4S98.79,128.34,97.22,129.31Z" transform="translate(-0.17)"/><path class="cls-34" d="M34.37,89.17C35,109.55,51.79,127.64,81,127.64c28.09,0,46-18.09,46.66-38.47,0,0-.54,4.82-46.66,4.82C49.29,94,34.37,89.17,34.37,89.17Z" transform="translate(-0.17)"/><path class="cls-35" d="M53.89,106.07c1.69,1.65,4.39,2.5,6.68,3.15a23.55,23.55,0,0,0,3.53.64c1.22.16,2.45.29,3.68.34a17.27,17.27,0,0,0,8.39-1.52,11.47,11.47,0,0,0,4.81-4.5,24,24,0,0,0,2.21-5.52c-3.53.1-7.85.13-13.12,0a142.28,142.28,0,0,1-21.68-1.85C48.53,98.23,48.35,100.66,53.89,106.07Z" transform="translate(-0.17)"/><path class="cls-36" d="M113.25,92.78c-1.23,2.54-2.56,5-3.84,7.51a31.88,31.88,0,0,1-6.8,9.16,36,36,0,0,1-9.83,6.38c-8.38,3.62-17.63,3.73-26.52,2.23a31.16,31.16,0,0,1-10.7-3.57,30.16,30.16,0,0,1-7.94-6.72,40.46,40.46,0,0,1-8.24-17.36c-3.36-.71-5-1.24-5-1.24C35,109.55,51.79,127.64,81,127.64c28.09,0,46-18.09,46.66-38.47C127.68,89.17,127.43,91.35,113.25,92.78Z" transform="translate(-0.17)"/><path class="cls-15" d="M112.18,44.51a5.89,5.89,0,0,0-2.82-3.74,4.15,4.15,0,0,0-4.57,0c-1.76,1.31-4.48,5.47-7.78,8.24-2.76,2.31-6.07,2.64-7.39,5.64-1.55,3.55-.07,5.93,3.18,7.67,4.08,2.19,7.45.38,10.28-2.26C106.34,57.05,113.56,49.54,112.18,44.51Z" transform="translate(-0.17)"/><path class="cls-14" d="M98.52,50a1.6,1.6,0,0,0,1.59.23c1-.44,1.46-1.59,2.07-2.42a9.73,9.73,0,0,1,1.29-1.5,6.57,6.57,0,0,1,1.47-1,4.91,4.91,0,0,0,1.53-1c.11-.12.21-.25.31-.38l-.22-.14a2.72,2.72,0,0,0-3,0c-1.16.86-2.94,3.59-5.1,5.4q-.19.16-.39.3A1.8,1.8,0,0,0,98.52,50Z" transform="translate(-0.17)"/><path class="cls-16" d="M112.18,44.51a.29.29,0,0,1,0-.09c-.49.85-1,1.67-1.55,2.48a27.82,27.82,0,0,1-6.39,7.44,46.06,46.06,0,0,1-4.45,3.17,9.38,9.38,0,0,1-5,1.56,5.79,5.79,0,0,1-4.19-2.37,4.27,4.27,0,0,1-1-1.93c-1.5,3.51,0,5.86,3.21,7.59,4.08,2.19,7.45.38,10.28-2.26C106.34,57.05,113.56,49.54,112.18,44.51Z" transform="translate(-0.17)"/><path class="cls-10" d="M109.58,41.08a5.28,5.28,0,0,1,1.92-2.91,2,2,0,0,0-1.94-.68,13.44,13.44,0,0,1-1.06,2.94Z" transform="translate(-0.17)"/><path class="cls-22" d="M111.5,38.17a1.67,1.67,0,0,0-.54-.44s-.83,1.17-1.11,1.6a3.32,3.32,0,0,1-1.33,1.08l0,0,1.08.65A5.28,5.28,0,0,1,111.5,38.17Z" transform="translate(-0.17)"/><path class="cls-10" d="M106.08,40.18s-1.94,1.51-2,2.81a6.56,6.56,0,0,1,2.84-1.07,3.26,3.26,0,0,0-.64,2.2s1.51-1.22,2.62-1.06a2.34,2.34,0,0,1,.14,2,1.59,1.59,0,0,0,1.26-2,3.49,3.49,0,0,1,.3,3.45A3.14,3.14,0,0,0,112,44S110.65,39.41,106.08,40.18Z" transform="translate(-0.17)"/><path class="cls-22" d="M112,44a6.56,6.56,0,0,0-1.2-2.12,2.06,2.06,0,0,1,0,1.23s-.45-.31-.68-.39a1.18,1.18,0,0,1-.5.82,2.16,2.16,0,0,1-.17-.7c0-.15,0-.53-.27-.53a1.51,1.51,0,0,0-.42.05c-.43.1-1.29.47-1.29.43a1.47,1.47,0,0,1,.18-.82c.06-.14.13-.28.2-.41s.19-.25-.06-.26h-.21a4.8,4.8,0,0,0-1.36.13,4.06,4.06,0,0,1-.88.14,3.91,3.91,0,0,1,1.24-1.44l-.5.06s-1.94,1.51-2,2.81a6.56,6.56,0,0,1,2.84-1.07,3.26,3.26,0,0,0-.64,2.2s1.51-1.22,2.62-1.06a2.34,2.34,0,0,1,.14,2,1.59,1.59,0,0,0,1.26-2,3.49,3.49,0,0,1,.3,3.45A3.14,3.14,0,0,0,112,44Z" transform="translate(-0.17)"/><polygon class="cls-8" points="42.6 18.18 42.05 18.52 43.32 20.52 43.48 22.74 43.84 22.7 43.91 20.93 45.31 21.68 45.56 21.25 43.87 20.16 42.6 18.18"/><path class="cls-10" d="M44.49,21.6c-.43.06-1.73.53-1.09,2.36a2,2,0,0,1-.52,2c-.57.68.34,4.16,1.6,3.84S46,28.06,46.24,26.4c.11-.85.86-1.52.34-2.44C45.86,22.71,46.45,21.32,44.49,21.6Z" transform="translate(-0.17)"/><path class="cls-35" d="M45.75,24.92a2.53,2.53,0,0,0-1.22,1.76,3.84,3.84,0,0,0,.22,1.12c.07.39.22,1,.42,1.07a5.69,5.69,0,0,0,.69-2.32c.09-.67.69-1.2.28-1.93Z" transform="translate(-0.17)"/><path class="cls-37" d="M44,25.83A8.6,8.6,0,0,0,44.05,27a9.65,9.65,0,0,0,.18,1.2,2.92,2.92,0,0,0,.7,1.47,2.34,2.34,0,0,1-.45.18c-1.26.32-2.17-3.16-1.6-3.84a2,2,0,0,0,.52-2c-.64-1.83.66-2.3,1.09-2.36.75-.11,1.13,0,1.34.31A5.36,5.36,0,0,0,44,25.83Z" transform="translate(-0.17)"/><path class="cls-10" d="M45.43,20.89c.4-.25,1.81-.75,2.54,1.2a2.16,2.16,0,0,0,1.83,1.32c1,.17,2.6,3.7,1.33,4.3s-2.49-.39-3.82-1.62c-.68-.63-1.78-.66-2-1.78C45.07,22.76,43.61,22,45.43,20.89Z" transform="translate(-0.17)"/><path class="cls-35" d="M49.86,26.62a2.73,2.73,0,0,0-.43-.85,2.11,2.11,0,0,0-.68-.65.8.8,0,0,0-.44-.17c-.13,0-.26,0-.39,0-.57,0-1.29-.58-1.67-.23-.22.21.77.65,1.2,1.05.84.8,2,2,2.43,1.59C50.06,27.21,49.93,26.9,49.86,26.62Z" transform="translate(-0.17)"/><path class="cls-37" d="M48.8,24a8.63,8.63,0,0,1,.71,1,10.78,10.78,0,0,1,.68,1.12,3.08,3.08,0,0,1,.44,1.71,2.07,2.07,0,0,0,.5-.16c1.27-.6-.38-4.13-1.33-4.3A2.16,2.16,0,0,1,48,22.09c-.73-1.95-2.14-1.45-2.54-1.2-.7.44-.91.81-.9,1.19A5.81,5.81,0,0,1,48.8,24Z" transform="translate(-0.17)"/><polygon class="cls-8" points="69.33 77.87 69.97 77.87 69.97 75.5 71.03 73.54 70.71 73.38 69.7 74.83 68.92 73.46 68.47 73.68 69.32 75.51 69.33 77.87"/><path class="cls-10" d="M69.88,74.06c.4.18,1.75.47,2.19-1.41a2,2,0,0,1,1.52-1.42c.85-.27,1.94-3.7.7-4.1s-2.24.66-3.31,1.94c-.54.66-1.55.82-1.59,1.87C69.33,72.39,68.08,73.24,69.88,74.06Z" transform="translate(-0.17)"/><path class="cls-35" d="M70.6,70.58a2.54,2.54,0,0,0,2-.83A3.6,3.6,0,0,0,73,68.68c.15-.37.37-1,.22-1.12s-1.19.81-1.83,1.58c-.43.52-1.23.65-1.27,1.48Z" transform="translate(-0.17)"/><path class="cls-37" d="M72.6,70.77a7.34,7.34,0,0,0,.53-1,9.87,9.87,0,0,0,.49-1.11A2.83,2.83,0,0,0,73.81,67a2,2,0,0,1,.48.09c1.24.4.15,3.83-.7,4.1a2,2,0,0,0-1.52,1.42c-.44,1.88-1.79,1.59-2.19,1.41-.69-.31-.93-.63-1-1A5.34,5.34,0,0,0,72.6,70.77Z" transform="translate(-0.17)"/><path class="cls-10" d="M68.72,74.15c-.48,0-1.94-.33-1.51-2.38a2.16,2.16,0,0,0-.84-2.09c-.7-.65-.21-4.51,1.18-4.33s1.9,1.66,2.36,3.41c.24.89,1.15,1.51.71,2.56C70,72.77,70.86,74.17,68.72,74.15Z" transform="translate(-0.17)"/><path class="cls-35" d="M68,66.94a3,3,0,0,0-.09,1,2.48,2.48,0,0,0,.22.92.87.87,0,0,0,.29.37l.34.19c.49.3.78,1.18,1.29,1.08.29,0-.31-1-.45-1.53-.28-1.13-.63-2.75-1.2-2.64C68.19,66.33,68.13,66.67,68,66.94Z" transform="translate(-0.17)"/><path class="cls-37" d="M67.55,69.69a10.13,10.13,0,0,1-.06-1.23,11.41,11.41,0,0,1,0-1.31,3,3,0,0,1,.54-1.67,1.59,1.59,0,0,0-.51-.13c-1.39-.18-1.88,3.68-1.18,4.33a2.16,2.16,0,0,1,.84,2.09c-.43,2,1,2.38,1.51,2.38.81,0,1.2-.19,1.39-.52A5.82,5.82,0,0,1,67.55,69.69Z" transform="translate(-0.17)"/><polygon class="cls-8" points="63.47 24.47 63.02 24.52 63.2 26.15 62.62 27.58 62.86 27.67 63.44 26.59 64.09 27.48 64.38 27.29 63.65 26.09 63.47 24.47"/><path class="cls-10" d="M63.67,27.12c-.29-.09-1.25-.19-1.41,1.14a1.36,1.36,0,0,1-.93,1.1c-.57.25-1.06,2.7-.17,2.88s1.49-.62,2.13-1.59c.33-.49,1-.68,1-1.41C64.18,28.23,65,27.55,63.67,27.12Z" transform="translate(-0.17)"/><path class="cls-35" d="M63.44,29.58a1.77,1.77,0,0,0-1.3.73,3,3,0,0,0-.21.76c-.07.27-.17.72,0,.8s.75-.66,1.13-1.23c.26-.4.8-.55.77-1.12A3.43,3.43,0,0,0,63.44,29.58Z" transform="translate(-0.17)"/><path class="cls-37" d="M62.05,29.6a5.16,5.16,0,0,0-.29.74,7.46,7.46,0,0,0-.26.8,2.07,2.07,0,0,0,0,1.13,1,1,0,0,1-.33,0c-.89-.18-.4-2.63.17-2.88a1.36,1.36,0,0,0,.93-1.1c.16-1.33,1.12-1.23,1.41-1.14.5.17.69.37.74.61A3.71,3.71,0,0,0,62.05,29.6Z" transform="translate(-0.17)"/><path class="cls-10" d="M64.47,27c.32,0,1.35.08,1.22,1.53a1.48,1.48,0,0,0,.74,1.37c.54.4.49,3.1-.48,3.09s-1.44-1-1.9-2.18c-.23-.59-.9-1-.68-1.71C63.67,28,63,27.12,64.47,27Z" transform="translate(-0.17)"/><path class="cls-35" d="M65.48,31.89a1.78,1.78,0,0,0,0-.65,1.56,1.56,0,0,0-.23-.62.57.57,0,0,0-.22-.24l-.26-.1c-.35-.17-.62-.76-1-.65-.2.06.29.64.43,1,.28.76.65,1.85,1,1.73C65.43,32.33,65.44,32.09,65.48,31.89Z" transform="translate(-0.17)"/><path class="cls-37" d="M65.61,30a6,6,0,0,1,.14.85,6.84,6.84,0,0,1,.08.9,2.14,2.14,0,0,1-.25,1.2A1.5,1.5,0,0,0,66,33c1,0,1-2.69.48-3.09a1.48,1.48,0,0,1-.74-1.37c.13-1.45-.9-1.56-1.22-1.53-.57.06-.82.23-.93.47A4,4,0,0,1,65.61,30Z" transform="translate(-0.17)"/><polygon class="cls-8" points="42.54 55.89 42.99 55.89 42.99 54.25 43.72 52.89 43.5 52.78 42.8 53.79 42.25 52.84 41.95 52.99 42.54 54.26 42.54 55.89"/><path class="cls-10" d="M43,53.25c.27.13,1.21.33,1.52-1a1.35,1.35,0,0,1,1-1c.59-.19,1.35-2.57.49-2.85s-1.55.45-2.3,1.35c-.38.45-1.07.56-1.1,1.3C42.59,52.09,41.73,52.68,43,53.25Z" transform="translate(-0.17)"/><path class="cls-35" d="M43.48,50.83a1.73,1.73,0,0,0,1.37-.58,2.92,2.92,0,0,0,.29-.73c.1-.26.25-.69.15-.79s-.83.57-1.27,1.1c-.3.36-.85.45-.88,1Z" transform="translate(-0.17)"/><path class="cls-37" d="M44.86,51a5.9,5.9,0,0,0,.38-.7,7.43,7.43,0,0,0,.33-.77,2,2,0,0,0,.14-1.12,1,1,0,0,1,.33.06c.86.28.1,2.66-.49,2.85a1.35,1.35,0,0,0-1,1c-.31,1.31-1.25,1.11-1.52,1-.48-.22-.65-.44-.67-.68A3.72,3.72,0,0,0,44.86,51Z" transform="translate(-0.17)"/><path class="cls-10" d="M42.17,53.31c-.33,0-1.34-.23-1.05-1.65a1.49,1.49,0,0,0-.58-1.45c-.49-.45-.15-3.13.82-3s1.32,1.15,1.64,2.37c.16.62.79,1,.49,1.78C43.08,52.35,43.66,53.33,42.17,53.31Z" transform="translate(-0.17)"/><path class="cls-35" d="M41.7,48.31a2.36,2.36,0,0,0-.07.65,1.77,1.77,0,0,0,.16.64.57.57,0,0,0,.2.26l.24.13c.33.21.54.82.89.76s-.21-.67-.31-1.07c-.2-.78-.44-1.91-.83-1.83C41.8,47.88,41.76,48.12,41.7,48.31Z" transform="translate(-0.17)"/><path class="cls-37" d="M41.36,50.22a6.19,6.19,0,0,1,0-.86c0-.3,0-.61,0-.91a2.18,2.18,0,0,1,.39-1.16,1.9,1.9,0,0,0-.36-.09c-1-.12-1.31,2.56-.82,3a1.49,1.49,0,0,1,.58,1.45c-.29,1.42.72,1.65,1.05,1.65.57,0,.83-.13,1-.36A4,4,0,0,1,41.36,50.22Z" transform="translate(-0.17)"/><polygon class="cls-8" points="96.9 42.23 97.35 42.23 97.35 40.59 98.08 39.23 97.86 39.12 97.15 40.13 96.61 39.18 96.3 39.33 96.89 40.6 96.9 42.23"/><path class="cls-10" d="M97.34,39.59c.27.13,1.21.33,1.52-1a1.35,1.35,0,0,1,1-1c.59-.19,1.35-2.57.49-2.85s-1.56.45-2.3,1.35c-.38.45-1.08.56-1.11,1.3C97,38.43,96.08,39,97.34,39.59Z" transform="translate(-0.17)"/><path class="cls-35" d="M97.84,37.17a1.71,1.71,0,0,0,1.36-.58,2.62,2.62,0,0,0,.3-.73c.1-.26.25-.69.14-.79s-.82.57-1.26,1.1c-.3.36-.86.45-.89,1C97.61,37.2,97.73,37.18,97.84,37.17Z" transform="translate(-0.17)"/><path class="cls-37" d="M99.22,37.31a4.68,4.68,0,0,0,.37-.7,5.82,5.82,0,0,0,.34-.77,2,2,0,0,0,.14-1.12,1.05,1.05,0,0,1,.33.06c.86.28.1,2.66-.49,2.85a1.35,1.35,0,0,0-1,1c-.31,1.31-1.25,1.11-1.52,1-.48-.22-.65-.44-.68-.68A3.72,3.72,0,0,0,99.22,37.31Z" transform="translate(-0.17)"/><path class="cls-10" d="M96.53,39.65c-.33,0-1.34-.23-1-1.65a1.49,1.49,0,0,0-.58-1.45c-.49-.45-.15-3.13.82-3s1.31,1.15,1.64,2.37c.16.62.79,1.05.49,1.78C97.43,38.69,98,39.67,96.53,39.65Z" transform="translate(-0.17)"/><path class="cls-35" d="M96.06,34.65a1.78,1.78,0,0,0-.07.65,1.59,1.59,0,0,0,.16.64.57.57,0,0,0,.2.26,1.83,1.83,0,0,0,.24.13c.33.21.53.82.89.76.2,0-.21-.67-.31-1.07-.2-.78-.44-1.91-.83-1.83C96.16,34.22,96.12,34.46,96.06,34.65Z" transform="translate(-0.17)"/><path class="cls-37" d="M95.72,36.56a8.27,8.27,0,0,1,0-.86c0-.3,0-.61,0-.91a2.25,2.25,0,0,1,.38-1.16,1.79,1.79,0,0,0-.35-.09c-1-.12-1.31,2.56-.82,3A1.49,1.49,0,0,1,95.48,38c-.29,1.42.72,1.65,1,1.65.56,0,.83-.13,1-.36A4,4,0,0,1,95.72,36.56Z" transform="translate(-0.17)"/><path class="cls-38" d="M108.35,136.71c-12.51.78-21.81,1.86-35,.81-7.47-.59-8.58-.69-16.2-7.38-2.59-2.28-3.95-6.69-.27-8,2.16-.78,8,3.91,11.19,5.08,6.75,2.51,23.09,1.5,23.22-.52.16-2.41-6.83-1.46-10.22-3.62-5.14-3.26-.62-8.58,5.33-6.75,14.39,4.42,21.65,5.82,21.65,5.82Z" transform="translate(-0.17)"/><path class="cls-38" d="M160.06,122.52l-57.25-1.07.12,15.48s25.3,4.88,57.13,9.26Z" transform="translate(-0.17)"/></g></g></g></g></svg>