<svg xmlns="http://www.w3.org/2000/svg" viewBox="0 0 313.02 289.65"><defs><style>.cls-1{isolation:isolate;}.cls-2{fill:#ffe7d3;}.cls-3{fill:#fff4e2;}.cls-4{fill:#ffe7c4;}.cls-14,.cls-17,.cls-18,.cls-23,.cls-25,.cls-4,.cls-45,.cls-48,.cls-50,.cls-58,.cls-60,.cls-63,.cls-67,.cls-7{opacity:0.5;}.cls-12,.cls-14,.cls-17,.cls-23,.cls-25,.cls-30,.cls-4,.cls-45,.cls-48,.cls-50,.cls-58,.cls-60,.cls-63,.cls-67,.cls-7{mix-blend-mode:multiply;}.cls-18,.cls-26,.cls-5{fill:#fff;mix-blend-mode:soft-light;}.cls-6,.cls-7{fill:#8dc03e;}.cls-8{fill:#269859;}.cls-9{fill:#00a45c;}.cls-10{fill:none;}.cls-11,.cls-12{fill:#c60059;}.cls-12{opacity:0.3;}.cls-13,.cls-14{fill:#2b9d54;}.cls-15,.cls-17{fill:#f98f3b;}.cls-16{fill:#e5762d;}.cls-19{fill:#7eb75d;}.cls-20{fill:#8fc768;}.cls-21{fill:#fbe6c3;}.cls-22,.cls-23{fill:#8b5d41;}.cls-24{fill:#035635;}.cls-25{fill:#7cba62;}.cls-26{opacity:0.8;}.cls-27,.cls-45{fill:#ff9836;}.cls-28{fill:#f03c3d;}.cls-29,.cls-30{fill:#804191;}.cls-30{opacity:0.4;}.cls-31{fill:#73ae37;}.cls-32,.cls-58{fill:#d4508c;}.cls-33{fill:#f0142b;}.cls-34{fill:#c51227;}.cls-35{fill:#f78173;}.cls-36{fill:#d91f3b;}.cls-37{fill:#658f30;}.cls-38{fill:#82a835;}.cls-39{fill:#ac6d26;}.cls-40{fill:#ffda4b;}.cls-41{fill:#ffc044;}.cls-42{fill:#fdad55;}.cls-43{fill:#4b9545;}.cls-44{fill:#65bd58;}.cls-46{fill:#76a133;}.cls-47,.cls-48{fill:#b1df5a;}.cls-49,.cls-50{fill:#98bf41;}.cls-51{fill:#fff8cc;}.cls-52{fill:#e9d862;}.cls-53{fill:#ffce6e;}.cls-54{fill:#ffe6b4;}.cls-55{fill:#274873;}.cls-56{fill:#12365b;}.cls-57{fill:#95bde0;}.cls-59,.cls-60{fill:#9f572b;}.cls-61{fill:#ffe0cd;}.cls-62{fill:#ddb587;}.cls-63{fill:#e7cbb9;}.cls-64,.cls-67{fill:#9fbb52;}.cls-65{fill:#d5e3ab;}.cls-66{fill:#536b25;}</style></defs><g class="cls-1"><g id="Capa_2" data-name="Capa 2"><g id="Design"><path class="cls-2" d="M125.12,61.93c-3.75-4.79-3.69-8.52-3.33-10.65a1.84,1.84,0,0,0-1.2-2.06l-1.23-.44-1.24-.51a1.84,1.84,0,0,0-2.25.68c-1.2,1.8-3.74,4.6-9.88,5.62C98,55.9,93.34,60.85,94.18,68.2c.66,5.64,7.95,9.37,11.31,10.8a1.82,1.82,0,0,0,.76,2.42,1.9,1.9,0,0,0,2.24-1.27c3.45,1.19,11.39,3.31,15.79-.38C130,75,130.05,68.22,125.12,61.93Z"/><path class="cls-3" d="M120.41,61.72a111.17,111.17,0,0,1,.09-12.35l-1-.53-.3-.12-1.09-.27a113.54,113.54,0,0,1-8.54,9.11c-3.82,3.51-11.65,13.2-4.32,20.64l0,.07.3.18a11.6,11.6,0,0,0,1,.85l.57.11.5.31c.45,0,.88,0,1.3,0l.34.06,0-.08C119.76,79.15,120.77,66.84,120.41,61.72Z"/><path class="cls-4" d="M124.28,79.77a11.15,11.15,0,0,0,4.41-9.2c-2.54,2.86-7.75,6.92-17.21,4.89A39.57,39.57,0,0,1,94.1,67.12c0,.35,0,.71.08,1.08.66,5.64,7.95,9.37,11.31,10.8a1.82,1.82,0,0,0,.76,2.42,1.9,1.9,0,0,0,2.24-1.27C111.94,81.34,119.88,83.46,124.28,79.77Z"/><path class="cls-5" d="M107.19,57.53c.47,1.09-1.16,2.84-3.64,3.9s-4.86,1-5.33,0,1.15-2.85,3.63-3.91S106.72,56.43,107.19,57.53Z"/><path class="cls-6" d="M54.53,50.32s15.17-6,8.22-13.34l1.82-10a12.62,12.62,0,0,0-12-14.87c-5.07-.16-9.34-.06-9.34-.06-5.62-8.46-14.68,5.19-14.68,5.19C10.72,6.45,9.84,36.7,9.84,36.7c-2.86,1.76-5,13.15.44,20.21,5.63,7.25,19,10.11,21.42,7.6C31.7,64.51,61.14,70.21,54.53,50.32Z"/><path class="cls-7" d="M54.53,50.32s12.72-5,9.51-11.51C53.87,48.47,29,66.67,9.17,37.32c-2.49,3-3.93,13.1,1.11,19.59,5.63,7.25,19,10.11,21.42,7.6C31.7,64.51,61.14,70.21,54.53,50.32Z"/><path class="cls-8" d="M40.8,36.19c.37-.12,2.05-.56,1.06-1-.5-.22-1.25.08-1.75.14l-1.55.2,0-.07c.49-1.65,1-3.3,1.46-4.95.37-1.24.73-2.48,1.09-3.72a12.11,12.11,0,0,0,.9-3.2,1.3,1.3,0,0,0-.43.64q-2.23,6.06-4.49,12.1c-1.46.81-3.94,2.21-6.95,4,.92-3.49,3.66-13.85,3-12L28.3,41.4c-2.24,1.32-4.69,2.79-7.18,4.34.93-3.49,3.67-13.86,3-12L19.21,46.94C9.39,53.16-.4,60.25,0,63.56c.82,6.59,4.6,4.69,5,4.08.21-.33,8.07-8.48,16.44-16.38l13.6-.35c2,0-8.48-.81-12.09-1.07,2-1.9,4.07-3.75,6-5.44L43.09,44c2,0-9.19-.87-12.42-1.1a62.86,62.86,0,0,1,7-5.36c.2-.13.86,0,1.1,0l1.41,0,3.43-.09,3.69-.1c.83,0,2.36.23,3.09-.16-.16-.52-1.39-.34-1.83-.38l-2.69-.22Z"/><path class="cls-9" d="M110.16,106.85a2,2,0,0,1-.94-2.62h0a2,2,0,0,1,2.63-.94L128.19,111a2,2,0,0,1,.94,2.63h0a2,2,0,0,1-2.62.93Z"/><path class="cls-9" d="M107.9,107a2,2,0,0,1,0-2.79h0a2,2,0,0,1,2.78,0l12.57,13a2,2,0,0,1,0,2.78h0a2,2,0,0,1-2.79,0Z"/><path class="cls-9" d="M110.43,101.63a2,2,0,0,0-2.13,1.81h0a2,2,0,0,0,1.8,2.12l18,1.48a2,2,0,0,0,2.12-1.81h0a2,2,0,0,0-1.8-2.12Z"/><path class="cls-10" d="M82.81,93.68a39.35,39.35,0,0,0,3.91,4.69,2,2,0,0,0,0-.23C87.08,95.05,83.83,94,82.81,93.68Z"/><path class="cls-11" d="M82.5,93.61l.31.07-.26-.37Z"/><path class="cls-11" d="M109,112.06q.44-.44.84-.9a21.78,21.78,0,0,0,3.21-5c1.47-3.08,4.78-11.83-2.42-17.3-8-6.06-16.09-1.66-19.5,1.2C87.71,105.64,100.86,110.53,109,112.06Z"/><path class="cls-11" d="M98.1,115.26a11.12,11.12,0,0,0,10.87-3.2c-8.11-1.53-21.26-6.42-17.87-22a10.59,10.59,0,0,0-.94.86c-2.59,2.64-6.2-.41-6.2-.41l-.94,1-.31.65-.16,1.09.26.37c1,.27,4.27,1.37,3.93,4.46a2,2,0,0,1,0,.23C86.38,102.23,87.5,112.72,98.1,115.26Z"/><path class="cls-12" d="M98.1,115.26a11.12,11.12,0,0,0,10.87-3.2c-8.11-1.53-21.26-6.42-17.87-22a10.59,10.59,0,0,0-.94.86c-2.59,2.64-6.2-.41-6.2-.41l-.94,1-.31.65-.16,1.09.26.37c1,.27,4.27,1.37,3.93,4.46a2,2,0,0,1,0,.23C86.38,102.23,87.5,112.72,98.1,115.26Z"/><path class="cls-5" d="M106.08,95.24c-2.25-1.72-3.22-4.21-2.18-5.57s3.69-1,5.94.67,3.21,4.22,2.18,5.57S108.32,97,106.08,95.24Z"/><path class="cls-13" d="M140.63,142.13c1.46-1.31,2.45-3.55,1.35-5.18-.84-1.23-2.75-2-2.62-3.45.1-1,1.22-1.63,2-2.38a4.15,4.15,0,0,0-.74-6.16c-1.05-.66-2.4-.85-3.29-1.71-1.19-1.14-1.15-3-1.24-4.59s-.71-3.55-2.32-3.94-3.24,1.23-5,1.36c-2,.15-3.6-1.65-5.52-2.3a5.08,5.08,0,0,0-5.48,1.58,4.84,4.84,0,0,0-.21,5.6c.65,1,1.67,1.75,1.91,2.88.69,3.11-4.81,4.81-4.47,8,.37,3.48,7.08,3.62,7.16,7.12,0,1.64-1.6,2.94-1.64,4.58,0,1.88,2,3.15,3.8,3.75s3.93,1.08,5,2.68c.74,1.17.82,2.83,2,3.56,3.78,2.32,3.5-2.84,3.66-4.38C135.32,145.32,138,144.5,140.63,142.13Z"/><path class="cls-14" d="M133.74,114.72c-1.71-.41-3.24,1.23-5,1.36-2,.15-3.6-1.65-5.52-2.3a5,5,0,0,0-2.57-.15c2.52,1.24,5.59,3.92,7.7,3.78,2.85-.19,3.33,2,3.43,4.88s3.56,4.62,2.71,6.36-2.88,3.85-.95,5.81,2.79,7.64-1.12,9.16a10.7,10.7,0,0,0-5.1,4.74,4.56,4.56,0,0,1,1.93,1.59c.74,1.17.82,2.83,2,3.56,3.78,2.32,3.5-2.84,3.66-4.38.39-3.81,3.1-4.63,5.7-7,1.46-1.31,2.45-3.55,1.35-5.18-.84-1.23-2.75-2-2.62-3.45.1-1,1.22-1.63,2-2.38a4.15,4.15,0,0,0-.74-6.16c-1.05-.66-2.4-.85-3.29-1.71-1.19-1.14-1.15-3-1.24-4.59S135.35,115.11,133.74,114.72Z"/><path class="cls-15" d="M141.34,185.11a3.64,3.64,0,0,1-3.13,4.12h0a3.74,3.74,0,0,1-4.22-3.1l-9.2-30.49c-.3-2,5.16-7.33,7.19-7.61h0c2-.28,8.7,2.14,9,4.13Z"/><path class="cls-16" d="M132.51,160.42a.94.94,0,0,0-1.12-.71,12.08,12.08,0,0,1-5.3.26l.6,2a17,17,0,0,0,5.11-.43A.9.9,0,0,0,132.51,160.42Z"/><path class="cls-16" d="M136.18,167.49a.91.91,0,0,0-1,.89.93.93,0,0,0,.92,1,9.42,9.42,0,0,0,2.12-.18,8.36,8.36,0,0,0,2.89-1.21l0-2.37A6.55,6.55,0,0,1,136.18,167.49Z"/><path class="cls-16" d="M137.12,180.1a.93.93,0,0,0,.73-1,1,1,0,0,0-1.06-.8,12.48,12.48,0,0,1-5.24-.22l.61,2a15.91,15.91,0,0,0,4.88,0Z"/><path class="cls-17" d="M137.58,183.09a3.83,3.83,0,0,1-3.14,4.32,3.79,3.79,0,0,0,3.77,1.82,3.64,3.64,0,0,0,3.13-4.12l-.36-33c-.15-1-1.85-2.07-3.78-2.88Z"/><path class="cls-18" d="M128.65,164.41s-2.91-7.56-1.78-9.55,3.87-3.06,4.56-1.74.07,10.62-.79,12.66S128.65,164.41,128.65,164.41Z"/><path class="cls-13" d="M101.55,45.29c1.6.73,3.8.75,4.75-.74.72-1.13.66-3,1.91-3.37.9-.3,1.79.42,2.67.77a3.71,3.71,0,0,0,4.81-2.79c.17-1.1-.14-2.28.24-3.32.52-1.38,2-2,3.34-2.65s2.68-1.84,2.43-3.31-2.16-2.23-2.89-3.63c-.84-1.61.08-3.55-.06-5.36a4.57,4.57,0,0,0-3.25-4,4.34,4.34,0,0,0-4.69,1.82c-.57.87-.85,2-1.69,2.59-2.32,1.67-5.68-2.26-8.16-.86-2.74,1.54-.48,7.13-3.33,8.43-1.34.61-3-.27-4.36.28-1.56.63-1.89,2.74-1.74,4.46s.51,3.62-.45,5c-.7,1-2,1.68-2.22,2.93-.57,3.94,3.58,1.87,4.91,1.46C97,42,98.68,44,101.55,45.29Z"/><path class="cls-14" d="M121.7,29.88c-.27-1.55-2.16-2.23-2.89-3.63-.84-1.61.08-3.55-.06-5.36a4.47,4.47,0,0,0-.79-2.17c-.13,2.51-1.25,6-.39,7.68,1.17,2.28-.5,3.47-2.8,4.56s-2.54,4.57-4.28,4.48-4.19-1-5.12,1.28-5.31,5-8,2.33a9.63,9.63,0,0,0-5.71-2.52,4.1,4.1,0,0,1-.63,2.15c-.7,1-2,1.68-2.22,2.93-.57,3.94,3.58,1.87,4.91,1.46,3.27-1,4.91.91,7.78,2.22,1.6.73,3.8.75,4.75-.74.72-1.13.66-3,1.91-3.37.9-.3,1.79.42,2.67.77a3.71,3.71,0,0,0,4.81-2.79c.17-1.1-.14-2.28.24-3.32.52-1.38,2-2,3.34-2.65S122,31.35,121.7,29.88Z"/><path class="cls-15" d="M66.39,61.11A3.24,3.24,0,0,1,61.89,60h0a3.36,3.36,0,0,1,1-4.58L84.81,37c1.53-1,7.86,1.65,8.81,3.23h0c1,1.57,1.33,7.93-.2,8.88Z"/><path class="cls-16" d="M83.61,45.08a.85.85,0,0,0,.18-1.18,10.81,10.81,0,0,1-2.09-4.27l-1.41,1.19a15.52,15.52,0,0,0,2.16,4.06A.83.83,0,0,0,83.61,45.08Z"/><path class="cls-16" d="M79.08,50.61A.82.82,0,0,0,78,50.13a.84.84,0,0,0-.46,1.1,9.25,9.25,0,0,0,.9,1.69,7.69,7.69,0,0,0,2,1.95L82.42,54A5.89,5.89,0,0,1,79.08,50.61Z"/><path class="cls-16" d="M69,55.86a.81.81,0,0,0,1.09.23.84.84,0,0,0,.28-1.15,11.28,11.28,0,0,1-1.67-4.4l-1.44,1.22a14.29,14.29,0,0,0,1.7,4Z"/><path class="cls-17" d="M66.72,57.29a3.42,3.42,0,0,1-4.67-1A3.38,3.38,0,0,0,61.89,60a3.24,3.24,0,0,0,4.5,1.12l27-12c.75-.47,1-2.26,1-4.14Z"/><path class="cls-18" d="M79,43.31s5.19-5.08,7.24-4.85,3.89,2.1,3,3.13-8.73,3.83-10.72,3.85S79,43.31,79,43.31Z"/><path class="cls-19" d="M184.09,145.26s-.47-17.73,10-13.79c0,0,3.16-19.81,21.58-13.72l.07-.13c20.33,4,12,23.18,12,23.18,11,2.15,1,16.92,1,16.92,18.62,13.41-11.66,26.83-11.66,26.83-1.14,7.32-7.25,7-13.43,5.93,0,0-3.23,1.29-8.8-1.36-5.29-.46-7.08-2.92-7.08-2.92-5.84-2.35-11.27-5.26-8.28-12.1C179.52,174.1,161.09,146.87,184.09,145.26Z"/><path class="cls-20" d="M201.43,178.32a3.55,3.55,0,0,0,.81.06,6.1,6.1,0,0,1,2.72-.17,15.78,15.78,0,0,0,4.15.36c0-.08,0-.18.06-.29a6,6,0,0,1,3.48-4.53c4.89-2.19,10.8-6.58,11.06-8.95,0-.53-.72-1.67-2.57-3a5.89,5.89,0,0,1-1.41-8.07,17.81,17.81,0,0,0,2.3-5,5.84,5.84,0,0,1-3.51-2.89,5.91,5.91,0,0,1-.17-5.08c.48-1.16,1.6-5.15.26-7.68-.76-1.43-2.43-2.48-5-3.12a6.86,6.86,0,0,1-.9-.09,6.45,6.45,0,0,1-.84-.21,13.49,13.49,0,0,0-2-.52c-2.53-.44-3.8.21-4.53.74-2.32,1.66-3.38,5.5-3.52,6.37a6,6,0,0,1-6.89,4.94l-.52-.12a18,18,0,0,0-.76,5.48,6,6,0,0,1-5.54,6.09c-2.29.16-3.55.71-3.79,1.2-1.06,2.16,1.57,9,4.55,13.37a5.89,5.89,0,0,1,.51,5.66c0,.11-.08.2-.11.28a16.54,16.54,0,0,0,3.78,1.9,5.81,5.81,0,0,1,2.16,1.5,4.1,4.1,0,0,0,1.32.42h0a6.6,6.6,0,0,0,.68.09,4.26,4.26,0,0,1,.5.06,5.78,5.78,0,0,1,1.51.48A8.61,8.61,0,0,0,201.43,178.32Z"/><path class="cls-21" d="M191.08,197.62a1.45,1.45,0,0,0,1.53-1c.17-.54,17.26-54,21.61-62.68a1.41,1.41,0,0,0-.63-1.91,1.43,1.43,0,0,0-1.92.65c-4.46,8.89-21.08,60.88-21.78,63.09a1.41,1.41,0,0,0,.92,1.79A1.31,1.31,0,0,0,191.08,197.62Z"/><path class="cls-21" d="M204,158.35a1.45,1.45,0,0,0,1.09-.34l13.19-11.31a1.43,1.43,0,1,0-1.85-2.17l-11.24,9.64L203,139.78a1.42,1.42,0,0,0-1.64-1.18,1.44,1.44,0,0,0-1.19,1.64l2.59,16.92a1.42,1.42,0,0,0,1.25,1.19Z"/><path class="cls-21" d="M198.27,175.51a1.4,1.4,0,0,0,.87-.19L211,168.43a1.44,1.44,0,0,0,.53-2,1.42,1.42,0,0,0-1.95-.51L199.12,172l-5-11.86a1.41,1.41,0,0,0-1.87-.74,1.43,1.43,0,0,0-.76,1.88l5.64,13.34a1.45,1.45,0,0,0,.87.79A1.36,1.36,0,0,0,198.27,175.51Z"/><path class="cls-22" d="M267.36,155a.7.7,0,0,0,.07-.11l.16-.34c.08-.16.16-.35.25-.58s.17-.5.26-.79a13.69,13.69,0,0,0,.45-2c.06-.38.1-.78.13-1.18s.06-.81.06-1.22,0-.81,0-1.22,0-.8-.09-1.18-.09-.75-.13-1.1-.11-.68-.17-1c-.08-.61-.23-1.11-.3-1.46l-.13-.55,0-.08a1.86,1.86,0,1,1,3.63-.83,2.89,2.89,0,0,1,0,.29l0,.63c0,.41.09,1,.09,1.67,0,.35,0,.72,0,1.12s0,.82-.05,1.25-.08.88-.12,1.33-.12.91-.19,1.37-.18.91-.27,1.35-.23.88-.36,1.29a18.74,18.74,0,0,1-.87,2.22c-.16.31-.3.6-.45.84a7.42,7.42,0,0,1-.4.64c-.12.18-.21.3-.29.41l-.11.14a.76.76,0,0,1-1.23-.88Z"/><path class="cls-23" d="M271.68,143.94c0-.7-.07-1.27-.09-1.67l0-.63a2.54,2.54,0,0,0,0-.29,1.85,1.85,0,0,0-2-1.43,1.87,1.87,0,0,1,.71,1.12,1.54,1.54,0,0,1,0,.3l.05.66c0,.43.09,1,.08,1.75,0,.36,0,.75,0,1.17s0,.85-.06,1.3-.07.93-.11,1.4-.13.95-.2,1.43-.18.95-.27,1.41-.23.92-.36,1.36a18.79,18.79,0,0,1-.87,2.31c-.16.33-.3.63-.45.89s-.28.48-.39.66-.16.24-.23.33a.77.77,0,0,0,1.07-.11l.11-.14.29-.41c.12-.18.26-.39.4-.64s.29-.53.45-.85a18.55,18.55,0,0,0,.87-2.21c.13-.42.24-.85.36-1.29s.21-.9.27-1.36.16-.91.19-1.36.11-.9.12-1.34,0-.85.05-1.24S271.68,144.28,271.68,143.94Z"/><path class="cls-6" d="M268.35,153.68a.39.39,0,0,1-.3-.13,15.33,15.33,0,0,1-1.48-1.74c-1.51-1.93-2.92-3.75-5.4-2.9l-.09,0a3.35,3.35,0,0,1,.36.21,3.29,3.29,0,0,1,1.37,2.28,1.16,1.16,0,0,1-.67,1,1.45,1.45,0,0,1-1.57-.13,2.83,2.83,0,0,1-1.09-2.46,8,8,0,0,0-1,.49,9.65,9.65,0,0,1-1.16.58,2.83,2.83,0,0,1-2.35-.08,3.88,3.88,0,0,1-1.87-2.5.42.42,0,0,1,.3-.53.43.43,0,0,1,.54.3A3,3,0,0,0,255.4,150a1.93,1.93,0,0,0,1.63,0,7.49,7.49,0,0,0,1.06-.53,5.86,5.86,0,0,1,1.77-.75,2.12,2.12,0,0,1,1-.71c3.08-1.05,4.83,1.2,6.38,3.19a16.44,16.44,0,0,0,1.4,1.66.44.44,0,0,1-.31.75Zm-8-4a1.06,1.06,0,0,0,0,.19,1.94,1.94,0,0,0,.71,1.72.57.57,0,0,0,.66.08c.17-.09.2-.18.2-.27,0-.44-.58-1.2-1-1.5A1.33,1.33,0,0,0,260.4,149.65Z"/><path class="cls-6" d="M281.07,153.79l-.17,0a8.22,8.22,0,0,0-1.67-.46,6.61,6.61,0,0,1-2.77-1.05,6.34,6.34,0,0,1-1.59-1.56l-.86.18-.33.06c-1.75.36-2.59.77-3.28,2.37a.43.43,0,0,1-.57.24.45.45,0,0,1-.24-.58c.83-1.93,2-2.49,3.92-2.89l.33-.07.64-.12a2.66,2.66,0,0,1-.1-.75,2,2,0,0,1,1-1.87,1.31,1.31,0,0,1,1.45.47,1.5,1.5,0,0,1,.51,1.51c-.18.58-.8.94-1.59,1.2a6.58,6.58,0,0,0,1.21,1.11,5.85,5.85,0,0,0,2.43.89,9.12,9.12,0,0,1,1.83.51.43.43,0,0,1,.24.57A.44.44,0,0,1,281.07,153.79Zm-5.28-5.72h-.07a1.22,1.22,0,0,0-.46,1.07,1.51,1.51,0,0,0,.08.51c.57-.18,1.1-.41,1.19-.69s-.17-.49-.32-.64A.72.72,0,0,0,275.79,148.07Z"/><circle class="cls-6" cx="269.64" cy="189.88" r="37.33" transform="translate(-37.13 68.82) rotate(-13.62)"/><path class="cls-24" d="M269.64,152.55l-.69,0a2.64,2.64,0,0,0-.14.6,4.85,4.85,0,0,0,.23,2.12c.21.71.52,1.4.66,2.06a2.07,2.07,0,0,1,.07.45c0,.2,0,.43,0,.6s0,.32,0,.5,0,.36-.09.55a12.56,12.56,0,0,1-.81,2.43,14.91,14.91,0,0,0-1,3.13,7.47,7.47,0,0,0-.07,2l0,.41,0,.2,0,.24c.05.31.09.63.16.92.23,1.18.59,2.32.82,3.37a7.24,7.24,0,0,1,.21,2.93,6.88,6.88,0,0,1-.36,1.42c-.19.55-.43,1.18-.63,1.83a14.74,14.74,0,0,0-.5,2.08,10.38,10.38,0,0,0-.1,2.3,12.52,12.52,0,0,0,.36,2.19c.08.35.18.68.27,1l.15.49.12.41c.11.35.13.54.19.78s.08.5.09.76a6.66,6.66,0,0,1-.05,1.54,18.21,18.21,0,0,1-.93,3.38l-.31.92-.16.47-.07.23-.09.29-.14.46c0,.14-.09.37-.13.55-.1.39-.15.75-.21,1.12a11.93,11.93,0,0,0-.09,2.23,15.48,15.48,0,0,0,.29,2.12c.27,1.34.66,2.54,1,3.68.07.28.15.57.23.85v.12l0,.22.09.44,0,.11v.23l0,.31c0,.21,0,.48,0,.72a18.55,18.55,0,0,1-.5,3.12c-.24,1.07-.51,2.17-.65,3.3a9.48,9.48,0,0,0,.1,3.44,3.89,3.89,0,0,0,.25.82c0,.13.09.27.14.4s.12.24.18.37.25.47.4.71l.2.28.23.31A21.44,21.44,0,0,1,270,223a4.76,4.76,0,0,1,.3,3.48c-.05.27-.11.53-.17.77l1,0,.17-.45c.1-.28.19-.58.29-.9,0-.16.08-.32.12-.51a4.05,4.05,0,0,0,.09-.54,5,5,0,0,0,0-1.23,4.73,4.73,0,0,0-.36-1.31,17.67,17.67,0,0,0-1.32-2.29l-.14-.25-.15-.3-.22-.52a2.15,2.15,0,0,1-.1-.27l-.07-.28a2.71,2.71,0,0,1-.11-.58c-.24-1.58.41-3.44,1.07-5.59a19.56,19.56,0,0,0,.82-3.59c0-.35.07-.66.07-1V207l0-.29v-.14l0-.11-.06-.45,0-.22,0-.11,0-.22c-.07-.3-.13-.6-.2-.91-.28-1.21-.58-2.39-.77-3.51a11.39,11.39,0,0,1-.16-1.62,10.27,10.27,0,0,1,.11-1.57c.31-2.05,1.71-4.38,2.17-7.43a10.68,10.68,0,0,0-.35-4.61l-.15-.51-.13-.43c-.09-.29-.17-.57-.24-.85a10.78,10.78,0,0,1-.3-1.59,7.42,7.42,0,0,1,0-1.49,12.76,12.76,0,0,1,.34-1.6c.15-.55.33-1.09.52-1.72a10.27,10.27,0,0,0,.45-2.15,11,11,0,0,0-.49-4.14c-.37-1.21-.78-2.24-1-3.22-.08-.26-.13-.48-.18-.71l-.05-.17,0-.2-.08-.4a4.49,4.49,0,0,1-.05-1.22,13.17,13.17,0,0,1,.59-2.7,14.47,14.47,0,0,0,.63-2.95,6.28,6.28,0,0,0,0-.75,6.83,6.83,0,0,0-.06-.78c0-.25-.08-.42-.12-.63a4.67,4.67,0,0,0-.21-.71c-.33-.85-.72-1.48-1-2.05a3.63,3.63,0,0,1-.45-1.54,2,2,0,0,1,.08-.69Z"/><path class="cls-24" d="M276.45,154.09a6.81,6.81,0,0,0,.41,1c.08.14.15.29.25.45s.22.34.33.49a18,18,0,0,0,1.59,1.82,7.44,7.44,0,0,1,1.36,1.93,7,7,0,0,1,.37,1.15c.09.45.15.9.22,1.4.12,1,.2,2.07.43,3.25a9.38,9.38,0,0,0,.52,1.81c.05.14.09.26.15.41l.22.46c.14.33.3.59.45.88.62,1.12,1.36,2.13,2,3.13a18.38,18.38,0,0,1,1.78,3l.17.38.12.38a5.31,5.31,0,0,1,.22.75c0,.13,0,.26.06.39l0,.19,0,.08v.08l0,.25v.17c0,.1,0,.26,0,.38a29.36,29.36,0,0,1-.61,3.69l-.1.54,0,.13v.07l0,.14,0,.26,0,.25v.75c0,.12,0,.21,0,.33a11.22,11.22,0,0,0,.5,2.34,13.84,13.84,0,0,1,.89,3.51,4.66,4.66,0,0,1-.2,1.48c-.16.55-.38,1.15-.63,1.81a13.45,13.45,0,0,0-.64,2.23,2.87,2.87,0,0,0-.05.31l0,.16,0,.13v.06c0,.18,0,.31,0,.56v.66a5.85,5.85,0,0,0,0,.59c.15,1.56.53,2.84.67,4,0,.29.06.57.07.83v.33l0,.49c0,.08,0,.17,0,.23l0,.18,0,.34c-.06.25-.13.52-.2.78-.65,2.09-2.11,4.09-3.22,6.35a15.14,15.14,0,0,0-.73,1.76,7.92,7.92,0,0,0-.26.92l-.11.47,0,.08v.05l0,.1,0,.21c-.17,1.22-.2,2.27-.29,3.27a8.62,8.62,0,0,1-1.39,4.77,26.47,26.47,0,0,1-3.13,2.76l-.29.27c1-.21,2.08-.48,3.1-.78l.48-.33.52-.41.23-.2.11-.1.15-.14a7.31,7.31,0,0,0,1.59-2.53,14.89,14.89,0,0,0,.77-3c.19-1,.32-2.11.55-3.07l0-.2,0-.1v-.05s0,0,0,0l.11-.35a6.37,6.37,0,0,1,.25-.69,13.07,13.07,0,0,1,.69-1.41c.54-.95,1.21-1.91,1.9-3a18,18,0,0,0,1.9-3.64c.12-.35.22-.7.32-1.08l.12-.61.06-.31a2.42,2.42,0,0,0,0-.25l.05-.49v-.64a10.6,10.6,0,0,0-.06-1.14c-.14-1.47-.46-2.78-.54-3.91,0-.14,0-.28,0-.41v-.36c0-.08,0-.29,0-.44v0h0v-.12a1.16,1.16,0,0,1,0-.18,11.22,11.22,0,0,1,.52-1.68c.23-.61.5-1.29.72-2.05a7.85,7.85,0,0,0,.34-2.56,9.56,9.56,0,0,0-.41-2.42c-.22-.73-.46-1.39-.65-2a8.05,8.05,0,0,1-.37-1.62c0-.06,0-.13,0-.18v-.26l0-.26,0-.25h0V183l.07-.46a26.15,26.15,0,0,0,.57-4.21c0-.2,0-.38,0-.6l0-.33,0-.24,0-.17,0-.15-.05-.29c0-.19-.07-.39-.12-.58a10.13,10.13,0,0,0-.81-2.12,19.61,19.61,0,0,0-2.23-3.38c-.78-1-1.52-1.89-2.1-2.79-.13-.23-.29-.46-.39-.66l-.18-.3-.18-.39a8.8,8.8,0,0,1-.5-1.39c-.29-1-.46-2-.69-3-.11-.51-.24-1.05-.39-1.55a7.24,7.24,0,0,0-.67-1.53,8.94,8.94,0,0,0-1.93-2.19,20.8,20.8,0,0,1-1.68-1.5c-.12-.12-.21-.23-.32-.35l-.3-.39a5.83,5.83,0,0,1-.43-.73c-.06-.12-.12-.24-.17-.36l-1.06-.2A8.72,8.72,0,0,0,276.45,154.09Z"/><path class="cls-24" d="M297.16,212.73l.09-.33c0,.08,0,0,0,0v0l0-.05,0-.09.06-.18a6.77,6.77,0,0,1,.26-.67,12,12,0,0,1,.64-1.2,30.15,30.15,0,0,1,1.86-2.55,20.33,20.33,0,0,0,2-3.06,9.13,9.13,0,0,0,1.09-4c0-.36,0-.72-.05-1.08v-.07l0-.1v-.11l0-.23-.07-.49c-.1-.62-.21-1.2-.27-1.75a6.76,6.76,0,0,1-.07-1.53.91.91,0,0,1,0-.17v-.15h0c0-.14.05-.32.07-.39s.05-.21.09-.34l.11-.38c.17-.53.39-1.11.59-1.77a8.48,8.48,0,0,0,.44-2.22,7.45,7.45,0,0,0-.26-2.34,17.26,17.26,0,0,0-.64-1.92,13.29,13.29,0,0,1-.5-1.57,4.53,4.53,0,0,1-.11-.66l0-.22v-.19c0-.11,0-.19,0-.33,0-1,.29-2.16.45-3.46a11.72,11.72,0,0,0,.08-2.07l-.06-.54-.09-.54v-.07l0-.09v0l0-.1-.06-.22c0-.07,0-.13-.06-.22l-.08-.26c-.12-.37-.24-.66-.37-1s-.28-.6-.43-.87c-.29-.56-.61-1.08-.92-1.57-.63-1-1.24-1.84-1.71-2.69-.11-.22-.23-.43-.33-.64l-.14-.29-.15-.36a13.67,13.67,0,0,1-.42-1.32c-.05-.19-.09-.38-.14-.58a39.75,39.75,0,0,0-2.76-2.9c.06.35.11.7.16,1.08.12.9.21,1.88.41,2.93a15,15,0,0,0,.39,1.65l.12.37.16.43c.1.28.23.55.35.81.5,1.06,1.09,2,1.62,3a15.92,15.92,0,0,1,.74,1.41q.16.35.3.69c.08.23.17.48.22.67l0,.16a1,1,0,0,1,0,.2l.05.22,0,.1h0v0l0,.33,0,.34a8,8,0,0,1-.12,1.5c-.15,1.08-.48,2.29-.56,3.75a5.6,5.6,0,0,0,0,.59v.27l0,.23a8.23,8.23,0,0,0,.17,1.17,17.58,17.58,0,0,0,.61,2c.21.59.41,1.13.54,1.62a4.71,4.71,0,0,1,.17,1.35,6.14,6.14,0,0,1-.29,1.43c-.16.53-.38,1.12-.57,1.78q-.07.24-.15.51c0,.17-.08.35-.12.56s-.06.34-.09.51l0,.33c0,.09,0,.19,0,.29a10.52,10.52,0,0,0,.13,2.14c.1.67.24,1.28.35,1.86l.07.41,0,.22,0,.11h0v0l.06.72a6.35,6.35,0,0,1-.64,2.79c-.85,1.85-2.36,3.59-3.46,5.65a11.76,11.76,0,0,0-.73,1.64,4.54,4.54,0,0,0-.23.8l-.11.42-.08.4c-.19,1.08-.24,2.07-.34,3a8.43,8.43,0,0,1-.87,3.19,36.06,36.06,0,0,0,2.78-2.61l.06-.26C296.77,214.57,296.91,213.62,297.16,212.73Z"/><path class="cls-24" d="M262.58,153.23c-.06.15-.13.3-.21.46a5.71,5.71,0,0,1-.43.72l-.31.39a3.28,3.28,0,0,1-.31.34c-.47.48-1,1-1.69,1.5a9.09,9.09,0,0,0-1.95,2.2,7,7,0,0,0-.67,1.53c-.15.5-.28,1-.4,1.55-.22,1-.4,2.07-.69,3a10.3,10.3,0,0,1-.51,1.38c-.06.12-.12.27-.18.38l-.18.3c-.1.2-.26.43-.4.65-.58.89-1.31,1.79-2.09,2.78a20.78,20.78,0,0,0-2.25,3.39l-.24.5-.21.53a10.27,10.27,0,0,0-.36,1.11c-.05.19-.08.39-.12.58l-.06.3,0,.15,0,.17,0,.25,0,.32c0,.23,0,.41,0,.61a26.38,26.38,0,0,0,.55,4.23l.07.45,0,.12v0h0l0,.25,0,.26V184a1.28,1.28,0,0,1,0,.17,8.81,8.81,0,0,1-.37,1.6c-.19.6-.43,1.25-.65,2a10.59,10.59,0,0,0-.43,2.45,8.14,8.14,0,0,0,.35,2.6c.22.76.49,1.44.72,2.05a13.28,13.28,0,0,1,.52,1.66l0,.18,0,.09v0h0v0a2.82,2.82,0,0,1,0,.44v.35c0,.13,0,.27,0,.4-.08,1.12-.41,2.43-.55,3.91,0,.37-.06.75-.06,1.15v.65l.05.49a2.42,2.42,0,0,0,0,.25l0,.32.13.62c.1.38.2.73.33,1.09a18.21,18.21,0,0,0,1.9,3.66c.7,1.06,1.36,2,1.9,3a12.07,12.07,0,0,1,.7,1.39,6.37,6.37,0,0,1,.25.69l.11.34v0s0,0,0,0v.05l0,.1.05.2c.23,1,.37,2,.56,3.06a15.69,15.69,0,0,0,.78,3.05,7.25,7.25,0,0,0,1.63,2.55,1.82,1.82,0,0,0,.14.14l.12.1.23.2.52.41c.27.19.53.36.79.51,1,.27,2,.5,3,.68l-.44-.41a26.73,26.73,0,0,1-3.11-2.78,8.66,8.66,0,0,1-1.35-4.74c-.09-1-.11-2.05-.28-3.28l0-.2V215l0-.08-.1-.47c-.07-.32-.17-.62-.27-.93a13.8,13.8,0,0,0-.72-1.78c-1.1-2.28-2.58-4.27-3.21-6.34-.07-.25-.13-.52-.19-.76s0-.23,0-.34l0-.17s0-.15,0-.23l0-.49v-.32c0-.26,0-.53.07-.81.15-1.15.52-2.43.67-4,0-.2,0-.39,0-.6V197c0-.27,0-.39,0-.57v-.06l0-.14,0-.16c0-.11,0-.21,0-.32a14.93,14.93,0,0,0-.65-2.24c-.25-.66-.47-1.25-.63-1.8a4.46,4.46,0,0,1-.19-1.45,13.91,13.91,0,0,1,.87-3.48,10.65,10.65,0,0,0,.5-2.37,3.25,3.25,0,0,0,0-.33v-.76l0-.25,0-.25,0-.15v-.07l0-.14-.1-.53a28.32,28.32,0,0,1-.61-3.68c0-.12,0-.28,0-.38v-.16l0-.25v-.16l0-.19c0-.12,0-.25.06-.38a7.64,7.64,0,0,1,.49-1.49,19.43,19.43,0,0,1,1.77-3c.68-1,1.43-2,2.05-3.14.15-.29.3-.55.45-.89l.21-.47.16-.4a10.05,10.05,0,0,0,.51-1.83c.22-1.19.3-2.27.42-3.25.07-.5.13-.95.22-1.4a6.06,6.06,0,0,1,.36-1.14,7.17,7.17,0,0,1,1.35-1.93,19.24,19.24,0,0,0,1.58-1.82l.33-.5c.1-.16.17-.31.25-.45a6.81,6.81,0,0,0,.41-1c.12-.38.21-.73.28-1.06C263.29,153.09,262.94,153.16,262.58,153.23Z"/><path class="cls-24" d="M244.84,163.83l.08-.29.09-.28.08-.21a2.85,2.85,0,0,1,.18-.41,6.07,6.07,0,0,1,.5-.81,26.58,26.58,0,0,1,2.28-2.4,37.09,37.09,0,0,0-5.4,4.68h0c-.12.42-.23.85-.34,1.28-.21.86-.39,1.74-.63,2.57-.12.41-.26.84-.4,1.19l-.14.33-.13.27c-.08.18-.19.37-.3.57-.44.76-1,1.56-1.59,2.47a16.36,16.36,0,0,0-.88,1.45c-.14.26-.27.54-.4.82a8.83,8.83,0,0,0-.36.92l-.08.26c0,.09,0,.14-.06.21l-.05.19,0,.1v0l0,.09v.06l-.09.52-.05.52a10.54,10.54,0,0,0,.06,2c.15,1.23.38,2.3.4,3.18a2.59,2.59,0,0,1,0,.28v.17l0,.21a3.51,3.51,0,0,1-.1.56,14.6,14.6,0,0,1-.47,1.42c-.19.53-.42,1.12-.6,1.79a7.26,7.26,0,0,0-.26,2.27,8.21,8.21,0,0,0,.42,2.13l.54,1.63.1.35,0,.16,0,.13,0,.06,0,.09,0,.19v.12c0,.05,0,.1,0,.15a7.11,7.11,0,0,1-.06,1.35c-.06.5-.16,1-.25,1.62l-.07.45,0,.22v.1l0,.1v.07c0,.35,0,.69,0,1a8.64,8.64,0,0,0,1,3.87,18.83,18.83,0,0,0,1.92,2.87,28.69,28.69,0,0,1,1.72,2.33,10.91,10.91,0,0,1,.59,1,4.86,4.86,0,0,1,.24.61l.06.17,0,.08v.06s0,.07,0,0l.09.3c.23.8.37,1.67.56,2.56a10.43,10.43,0,0,0,.88,2.61,7,7,0,0,0,.71,1.11l.44.51.39.37,0,0,0,0,0,0,.06.05.12.1.24.18c.17.11.33.21.48.29a5.51,5.51,0,0,1,.7.43l.26.23.11.13.13.17a3.22,3.22,0,0,1,.24.36c.44.32.89.62,1.34.92a6.45,6.45,0,0,0-.26-1.08,4.21,4.21,0,0,0-.33-.83l-.1-.19-.13-.23a4.12,4.12,0,0,0-.33-.43,4.82,4.82,0,0,0-.81-.72l-.34-.28-.15-.15-.07-.08,0,0,0,0h0l0,0a6.41,6.41,0,0,1-1.37-3.86c-.08-.82-.12-1.74-.29-2.76l-.07-.38-.1-.4a5.77,5.77,0,0,0-.22-.75,11.4,11.4,0,0,0-.68-1.57c-1-1.95-2.42-3.57-3.16-5.23a5.56,5.56,0,0,1-.55-2.45c0-.21,0-.42.05-.63v0h0l0-.1,0-.2.07-.38c.1-.53.22-1.1.31-1.72a9.6,9.6,0,0,0,.13-2,2.53,2.53,0,0,0,0-.28l0-.33,0-.21,0-.12,0-.15-.06-.29-.06-.25c0-.17-.09-.33-.14-.49-.19-.62-.39-1.16-.53-1.64a5.27,5.27,0,0,1-.26-1.25,3.72,3.72,0,0,1,.14-1.15c.11-.44.29-.92.48-1.47a13.73,13.73,0,0,0,.57-1.86,9.14,9.14,0,0,0,.16-1.12v-.48c0-.19,0-.41,0-.57a30.88,30.88,0,0,0-.55-3.48,7.25,7.25,0,0,1-.11-1.34l0-.31,0-.29v0s0,.1,0,0v0l0-.1,0-.2c0-.06,0-.14,0-.18l0-.14c0-.16.12-.39.19-.59a5.68,5.68,0,0,1,.27-.63,13.11,13.11,0,0,1,.66-1.29c.48-.88,1-1.78,1.49-2.78.11-.26.22-.51.32-.77l.15-.41.11-.35a13.11,13.11,0,0,0,.36-1.55c.16-1,.26-1.88.36-2.72.05-.42.1-.82.16-1.21,0-.19.07-.38.11-.56l0-.14v-.07c0-.06,0,.07,0,0v0Z"/><path class="cls-25" d="M291.79,159.84a37.33,37.33,0,0,1-52.2,52.2,37.33,37.33,0,1,0,52.2-52.2Z"/><path class="cls-26" d="M253.53,164.69a9.06,9.06,0,0,0-5.64,13.84A9.06,9.06,0,0,0,260.44,166,9,9,0,0,0,253.53,164.69Z"/><path class="cls-15" d="M288.43,73.52c-.88-.11-1.73-.16-2.48-.21h0c-.56,0-1.13,0-1.7,0H284l-.87-1.05c-1.71-2.09-3.83-4.7-7.23-4.7a6.34,6.34,0,0,0-6.19,4.21c-1.19,3.09-.15,6.84,1.14,9.19.06.15.13.29.19.42a1.42,1.42,0,0,0,.08.18,22.56,22.56,0,0,0-1.58,5.6,7.56,7.56,0,0,0,2.56,7A7.2,7.2,0,0,0,276.86,96a7.75,7.75,0,0,0,4.85-1.86,12,12,0,0,0,2.1-2.21l.16-.23c.23-.39.48-.83.71-1.27s.65-1.19.9-1.56c.53-.23,1.15-.45,1.79-.69a20,20,0,0,0,4.88-2.29,7,7,0,0,0,3.13-5.78C296.34,76.05,291.7,73.15,288.43,73.52Zm4.2,6.46c0,4.25-5.25,5-8.49,6.49-.75.26-1.75,2.5-2.53,3.78A8.63,8.63,0,0,1,280,92a5,5,0,0,1-3.12,1.25,4.43,4.43,0,0,1-3-1.25c-3-2.5-1.25-6.74,0-10,.25-.75-.25-1.5-.56-2.27-1.69-3-2.44-8,1.31-9.23a3.89,3.89,0,0,1,1.26-.22c3,0,4.78,3.74,7,5.79,0,0,.54,0,1.38,0,.44,0,1,0,1.52,0,.72,0,1.53.1,2.32.2C290.48,76.56,292.82,77.35,292.63,80Z"/><path class="cls-27" d="M185,77.72c.53-.45,1-.92,1.44-1.32h0c.32-.3.63-.62.93-1l.13-.14,1.06.06c2.12.13,4.75.3,6.56-1.66a5,5,0,0,0,.88-5.81c-1.15-2.33-3.86-3.72-5.9-4.23l-.34-.12-.15,0a17.69,17.69,0,0,0-2.38-3.89,5.91,5.91,0,0,0-5.37-2.23,5.62,5.62,0,0,0-3.63,1.72,6.12,6.12,0,0,0-1.52,3.78,9.37,9.37,0,0,0,.16,2.39l0,.21c.1.35.23.72.36,1.09s.34,1,.41,1.35c-.15.43-.35.9-.55,1.4a15.44,15.44,0,0,0-1.28,4,5.51,5.51,0,0,0,1.66,4.88C179.35,80.92,183.49,79.79,185,77.72Zm-6-1c-2.44-2.26-.08-5.68.79-8.35.25-.57-.51-2.34-.83-3.47A6.86,6.86,0,0,1,178.9,63a3.88,3.88,0,0,1,.94-2.46,3.48,3.48,0,0,1,2.3-1.05c3-.4,4.55,2.87,5.76,5.33.3.54,1,.65,1.6.88,2.62.62,5.9,2.85,4.62,5.67a3.12,3.12,0,0,1-.55.85c-1.58,1.7-4.7.75-7,.92,0,0-.26.33-.71.82-.23.25-.52.54-.84.85s-.86.83-1.35,1.23C182.18,77.28,180.47,78.2,179.06,76.69Z"/><path class="cls-28" d="M227.61,79.6c-.28-.65-.59-1.25-.86-1.78h0c-.2-.4-.42-.79-.65-1.18l-.1-.17c.11-.32.24-.66.37-1,.74-2,1.66-4.51.29-6.83a5,5,0,0,0-5.37-2.53c-2.59.44-4.73,2.66-5.81,4.48l-.22.3a1,1,0,0,1-.09.13,17.69,17.69,0,0,0-4.45,1.18A6,6,0,0,0,207,76.73a5.65,5.65,0,0,0,.62,4,6.11,6.11,0,0,0,3.22,2.56,9.59,9.59,0,0,0,2.36.55h.22l1.15,0c.42,0,1.08,0,1.43,0,.37.27.77.6,1.19,1a16.2,16.2,0,0,0,3.54,2.4,5.56,5.56,0,0,0,5.21-.19C229.08,86,229.18,81.68,227.61,79.6Zm-2.71,5.47c-2.9,1.71-5.53-1.57-7.87-3.18-.47-.41-2.41-.19-3.59-.2a7.72,7.72,0,0,1-1.84-.42,4,4,0,0,1-2.11-1.63,3.52,3.52,0,0,1-.34-2.53c.49-3.06,4.1-3.58,6.82-4,.62-.13.93-.78,1.33-1.3,1.35-2.36,4.46-4.88,6.83-2.83a3.1,3.1,0,0,1,.65.78c1.2,2-.62,4.77-1.14,7.08,0,0,.24.35.58.93.18.3.38.66.59,1.06s.55,1.07.8,1.66C226.36,82.22,226.77,84.14,224.9,85.07Z"/><path class="cls-29" d="M252.35,169.7l-5.29-11s-16.79,6.73-34.41-2.21a32.17,32.17,0,0,0-3.2-1.42,26.57,26.57,0,0,0-3-.92c-7.37-2.52-16.73.92-19.86,8.16a11,11,0,0,0-.58,1.54C208,179,238.06,173.58,252.35,169.7Z"/><path class="cls-29" d="M238.86,176.94l2.78-.79,12.15-3.46-1.44-3C238.06,173.58,208,179,186,163.84c-1.92,6.56,2.7,14.09,9.63,16.31.75.29,1.52.54,2.3.77C211.59,184.66,225.69,181.09,238.86,176.94Z"/><path class="cls-30" d="M238.86,176.94l2.78-.79,12.15-3.46-1.44-3C238.06,173.58,208,179,186,163.84c-1.92,6.56,2.7,14.09,9.63,16.31.75.29,1.52.54,2.3.77C211.59,184.66,225.69,181.09,238.86,176.94Z"/><path class="cls-31" d="M245,178.54s12.23-3.38,10.85-12.83l6.72-1.9-.63-1.94-.48-2-6.71,1.89c-3.77-8.77-16-5.27-16-5.27,1.73,5.84,8.8,8.18,11,8.78C248.27,167,243.46,172.66,245,178.54Z"/><path class="cls-31" d="M241.75,167.34a11.53,11.53,0,0,1,5.83-4.42c3.62-1,6.88-.7,7.29.72s-2.21,3.41-5.84,4.43A11.31,11.31,0,0,1,241.75,167.34Z"/><path class="cls-18" d="M207,157a2.63,2.63,0,0,0-.33-.2c-2.77-1.57-6.67-2.57-9.55-.71-3.12,2-.1,4.31,2.15,5.24,1.89.78,4.23,1.36,6.23.69C207.75,161.24,209.5,158.64,207,157Z"/><path class="cls-28" d="M293.38,125.94c0,.71-.43,4.53-3,6.63s-5.49,2.89-6.86,1.92a2,2,0,0,1-.34-.31c-1.17-1.42.17-4.44,3-6.75s7.16-1.63,7.2-1.61Z"/><path class="cls-28" d="M281.62,118.32a6.6,6.6,0,0,1,1.63,4.54c-.26,2.19-1.29,3.9-2.39,4.07a1.06,1.06,0,0,1-.31,0c-1.21-.14-2-2.2-1.69-4.6a6.71,6.71,0,0,1,2.7-4.09Z"/><path class="cls-28" d="M291.23,115.41a6.55,6.55,0,0,1-.18,4.85c-1.06,2-2.67,3.19-3.76,2.95a1,1,0,0,1-.29-.1c-1.08-.57-1-2.78.15-4.92a6.84,6.84,0,0,1,4.05-2.85A.25.25,0,0,1,291.23,115.41Z"/><path class="cls-32" d="M160.37,74.65c-.57.41-3.86,2.41-7.07,1.66s-5.63-2.59-5.7-4.27a1.5,1.5,0,0,1,0-.47c.41-1.78,3.62-2.56,7.17-1.74s5.65,4.7,5.66,4.74Z"/><path class="cls-32" d="M159.26,60.67a6.6,6.6,0,0,1-2.61,4.06c-1.9,1.13-3.88,1.35-4.69.58a1.59,1.59,0,0,1-.2-.24c-.62-1,.55-2.89,2.63-4.13s4.86-.36,4.88-.35S159.27,60.63,159.26,60.67Z"/><path class="cls-32" d="M167.42,66.53a6.61,6.61,0,0,1-4,2.81c-2.2.35-4.15-.18-4.63-1.19a1,1,0,0,1-.09-.29c-.21-1.21,1.58-2.5,4-2.88s4.71,1.46,4.73,1.48A.28.28,0,0,1,167.42,66.53Z"/><path class="cls-27" d="M196.28,94c0,.7.43,4.53,3,6.63s5.48,2.88,6.85,1.92a1.52,1.52,0,0,0,.35-.32c1.16-1.41-.17-4.44-3-6.74s-7.17-1.63-7.21-1.61Z"/><path class="cls-27" d="M208.05,86.4a6.51,6.51,0,0,0-1.63,4.54c.25,2.19,1.28,3.9,2.38,4.07a1.09,1.09,0,0,0,.31,0c1.22-.14,2-2.2,1.69-4.59a6.71,6.71,0,0,0-2.7-4.09Z"/><path class="cls-27" d="M198.43,83.49a6.63,6.63,0,0,0,.18,4.84c1.06,2,2.67,3.2,3.76,3a1.54,1.54,0,0,0,.3-.11c1.08-.57,1-2.77-.15-4.92a6.91,6.91,0,0,0-4.06-2.85Z"/><path class="cls-13" d="M249.19,95.55a6.16,6.16,0,0,1,8.57-1.08,6,6,0,0,1,1.06,8.49,6.15,6.15,0,0,1-8.57,1.09A6,6,0,0,1,249.19,95.55Z"/><path class="cls-13" d="M237.67,87A6.17,6.17,0,0,1,246.24,86a6,6,0,0,1,1.07,8.5,6.16,6.16,0,0,1-8.57,1.08A6,6,0,0,1,237.67,87Z"/><path class="cls-13" d="M245.9,88.14c2.81-3.58,7.25-4.83,9.9-2.79s2.54,6.62-.26,10.2-7.25,4.83-9.91,2.78S243.1,91.72,245.9,88.14Z"/><path class="cls-19" d="M238.54,106.52a1.1,1.1,0,0,0,1.43-.1c5.9-5.87,9.74-4.44,9.78-4.42a1.08,1.08,0,1,0,.87-2c-.21-.09-5.14-2.13-12.18,4.89a1.07,1.07,0,0,0,0,1.52Z"/><path class="cls-19" d="M239.86,104.82l.11.08a1.1,1.1,0,0,0,1.42-.27l6.84-8.73a1.07,1.07,0,0,0-.19-1.51,1.08,1.08,0,0,0-1.52.19l-4.07,5.19A11.79,11.79,0,0,0,241,93.91a1.08,1.08,0,0,0-1.47-.44,1.07,1.07,0,0,0-.44,1.46,10.57,10.57,0,0,1,.41,8.61A1.05,1.05,0,0,0,239.86,104.82Z"/><path class="cls-19" d="M234.51,112a2.2,2.2,0,0,0,3.05-.39l6.78-8.65a2.13,2.13,0,0,0-.38-3,2.19,2.19,0,0,0-3.05.38l-6.78,8.65A2.16,2.16,0,0,0,234.51,112Z"/><path class="cls-13" d="M184.35,45.58a6.15,6.15,0,0,1-8.57-1.08A6,6,0,0,1,176.85,36a6.15,6.15,0,0,1,8.57,1.08A6,6,0,0,1,184.35,45.58Z"/><path class="cls-13" d="M195.87,37.07A6.16,6.16,0,0,1,187.3,36a6,6,0,0,1,1.07-8.49,6.16,6.16,0,0,1,8.57,1.08A6,6,0,0,1,195.87,37.07Z"/><path class="cls-13" d="M189,39.87c-2.65,2-7.1.79-9.9-2.78s-2.92-8.16-.27-10.2,7.1-.79,9.91,2.78S191.63,37.83,189,39.87Z"/><path class="cls-19" d="M196.07,48.05a1.1,1.1,0,0,1-1.44-.09c-5.89-5.88-9.74-4.44-9.77-4.42a1.09,1.09,0,0,1-1.43-.56,1.08,1.08,0,0,1,.56-1.42c.21-.09,5.13-2.14,12.18,4.88a1.09,1.09,0,0,1,0,1.53Z"/><path class="cls-19" d="M194.75,46.36l-.11.08a1.11,1.11,0,0,1-1.42-.27l-6.84-8.74a1.06,1.06,0,0,1,.19-1.51,1.1,1.1,0,0,1,1.52.19l4.07,5.2a11.92,11.92,0,0,1,1.4-5.87A1.1,1.1,0,0,1,195,35a1.07,1.07,0,0,1,.44,1.45,10.59,10.59,0,0,0-.41,8.62A1.08,1.08,0,0,1,194.75,46.36Z"/><path class="cls-19" d="M200.09,53.48a2.17,2.17,0,0,1-3-.38l-6.78-8.65a2.14,2.14,0,0,1,.38-3,2.19,2.19,0,0,1,3,.39l6.78,8.65A2.13,2.13,0,0,1,200.09,53.48Z"/><path class="cls-33" d="M262.15,124.74s-1.72,6.72-5.34,4.94c-2-1-2.53-3.47-2.66-5.15,1.6.37,3.93.73,4.41-.1.33-.56-.58-1.3-1.7-2l-9.4,4.31c-.63,1.15-1.09,2.37-.65,2.9.6.71,2.41-.84,3.69-2.1,4.89,10.86-5.2,5.37-5.2,5.37a11,11,0,0,1-3.35-3.65l-3.53,1.62a14.68,14.68,0,0,0,26.69-12.23L262,120.14A11.93,11.93,0,0,1,262.15,124.74Z"/><path class="cls-34" d="M258.56,124.43c-.48.83-2.81.47-4.41.1.13,1.68.67,4.17,2.66,5.15,3.62,1.78,5.34-4.94,5.34-4.94a11.93,11.93,0,0,0-.19-4.6l-5.1,2.34C258,123.13,258.89,123.87,258.56,124.43Z"/><path class="cls-34" d="M246.81,129.69c-.44-.53,0-1.75.65-2.9L242,129.31A11,11,0,0,0,245.3,133s10.09,5.49,5.2-5.37C249.22,128.85,247.41,130.4,246.81,129.69Z"/><path class="cls-33" d="M144.32,13.6s-5.28,2.62-3.16,5.32c1.16,1.48,3.33,1.49,4.75,1.3-.59-1.26-1.3-3.14-.7-3.69.41-.36,1.18.26,1.93,1.08l-1.93,8.58c-.85.72-1.78,1.33-2.3,1-.7-.37.27-2.16,1.1-3.44-9.9-2.15-3.55,5.28-3.55,5.28a9.35,9.35,0,0,0,3.62,2.14l-.72,3.22a12.49,12.49,0,0,1,5.47-24.36L148.18,13A10.34,10.34,0,0,0,144.32,13.6Z"/><path class="cls-34" d="M145.21,16.53c-.6.55.11,2.43.7,3.69-1.42.19-3.59.18-4.75-1.3-2.12-2.7,3.16-5.32,3.16-5.32a10.34,10.34,0,0,1,3.86-.65l-1,4.66C146.39,16.79,145.62,16.17,145.21,16.53Z"/><path class="cls-34" d="M142.91,27.24c.52.28,1.45-.33,2.3-1l-1.13,5a9.35,9.35,0,0,1-3.62-2.14s-6.35-7.43,3.55-5.28C143.18,25.08,142.21,26.87,142.91,27.24Z"/><path class="cls-9" d="M195,111.31a27.37,27.37,0,0,1-4.74,3.75c-2.58,1.55-.82-1.92-.82-1.92a43.72,43.72,0,0,1-4.64,4.85c-2,1.59-.1-3.58-.1-3.58s-4.24,3.32-6.39,2.88,6.33-4.44,6.33-4.44-2.32-.14-2.57-1.24,8.68-2.12,8.68-2.12-2.9-.79-3.13-2,5.88.35,5.88.35-1-1.61-.49-2.2,8,2,8,2l6.39-.23a74,74,0,0,0-7.12,2.06s-2.65,2.63-4.63,4.54S195,111.31,195,111.31Z"/><path class="cls-9" d="M267.59,46.62a27.62,27.62,0,0,1,.26-6c.52-3,2,.63,2,.63a44.31,44.31,0,0,1-.62-6.68C269.29,32,272,36.8,272,36.8s.27-5.38,2-6.71-.79,7.69-.79,7.69,1.63-1.67,2.62-1.13-4.08,7.94-4.08,7.94,2.5-1.67,3.61-1-4.13,4.21-4.13,4.21,1.87.31,2,1.08-6.75,4.68-6.75,4.68l-4,5c1.61-3,3.11-6.73,3.11-6.73s-.26-3.72-.4-6.47S267.59,46.62,267.59,46.62Z"/><path class="cls-9" d="M132.93,61.22a27.21,27.21,0,0,1-3.8-4.7c-1.58-2.57,1.91-.84,1.91-.84a43.71,43.71,0,0,1-4.89-4.6c-1.61-1.95,3.58-.13,3.58-.13s-3.36-4.21-2.93-6.36,4.49,6.29,4.49,6.29.12-2.32,1.22-2.58S134.7,57,134.7,57s.77-2.91,2-3.15-.31,5.88-.31,5.88,1.61-1,2.21-.5-2,8-2,8l.29,6.39c-.76-3.3-2.12-7.1-2.12-7.1s-2.66-2.63-4.58-4.59S132.93,61.22,132.93,61.22Z"/><path class="cls-33" d="M295.89,144.15a4,4,0,0,1-1.6,5.43,3.88,3.88,0,0,1-5.32-1.64,4.06,4.06,0,0,1,1.61-5.43A3.87,3.87,0,0,1,295.89,144.15Z"/><path class="cls-35" d="M294.07,143.3a1.52,1.52,0,0,1-.6,2,1.45,1.45,0,0,1-2-.61,1.51,1.51,0,0,1,.6-2A1.46,1.46,0,0,1,294.07,143.3Z"/><path class="cls-33" d="M160,42.34a4.06,4.06,0,0,1-1.6,5.43,3.88,3.88,0,0,1-5.32-1.64,4.06,4.06,0,0,1,1.61-5.43A3.88,3.88,0,0,1,160,42.34Z"/><path class="cls-35" d="M158.21,41.5a1.52,1.52,0,0,1-.6,2,1.46,1.46,0,0,1-2-.61,1.53,1.53,0,0,1,.61-2A1.45,1.45,0,0,1,158.21,41.5Z"/><path class="cls-22" d="M220.18,24a4.07,4.07,0,0,1-1.61,5.44,3.88,3.88,0,0,1-5.31-1.64,4.06,4.06,0,0,1,1.6-5.44A3.89,3.89,0,0,1,220.18,24Z"/><path class="cls-5" d="M218.35,23.16a1.52,1.52,0,0,1-.6,2,1.46,1.46,0,0,1-2-.62,1.54,1.54,0,0,1,.6-2A1.46,1.46,0,0,1,218.35,23.16Z"/><path class="cls-22" d="M232.34,25.67a4.05,4.05,0,0,1-1.6,5.43,3.89,3.89,0,0,1-5.32-1.64A4.07,4.07,0,0,1,227,24,3.88,3.88,0,0,1,232.34,25.67Z"/><path class="cls-5" d="M230.52,24.82a1.53,1.53,0,0,1-.6,2,1.45,1.45,0,0,1-2-.62,1.5,1.5,0,0,1,.6-2A1.45,1.45,0,0,1,230.52,24.82Z"/><path class="cls-22" d="M225.48,34.69a4.05,4.05,0,0,1-1.6,5.43,3.89,3.89,0,0,1-5.32-1.64A4.07,4.07,0,0,1,220.17,33,3.88,3.88,0,0,1,225.48,34.69Z"/><path class="cls-5" d="M223.66,33.84a1.53,1.53,0,0,1-.6,2,1.46,1.46,0,0,1-2-.62,1.52,1.52,0,0,1,.61-2A1.45,1.45,0,0,1,223.66,33.84Z"/><path class="cls-22" d="M292.48,202.19l.11-.08.29-.23c.13-.1.28-.24.46-.4s.36-.37.56-.58a15.43,15.43,0,0,0,1.25-1.6c.21-.31.41-.65.62-1s.39-.69.56-1,.35-.71.49-1.09.31-.71.43-1.07l.35-1,.26-.94c.18-.57.26-1.07.35-1.41l.12-.53v-.08a1.81,1.81,0,1,1,3.54.8,2.76,2.76,0,0,1-.08.27s-.08.21-.23.57-.33.9-.63,1.51c-.14.3-.29.64-.46,1l-.57,1.07c-.19.38-.44.74-.66,1.12s-.5.75-.75,1.13-.55.72-.81,1.07-.57.67-.86,1a17.23,17.23,0,0,1-1.7,1.59c-.27.21-.52.4-.75.55s-.44.29-.62.39l-.43.24-.16.08a.74.74,0,0,1-.7-1.3Z"/><path class="cls-23" d="M300.94,194.27c.3-.61.48-1.14.63-1.5l.23-.58a2.14,2.14,0,0,0,.09-.27,1.82,1.82,0,0,0-1.12-2.08,1.89,1.89,0,0,1,.15,1.29c0,.09-.06.19-.09.28l-.24.6c-.16.38-.35.93-.66,1.57l-.48,1-.6,1.12c-.2.4-.46.78-.69,1.18s-.51.78-.77,1.18-.57.75-.84,1.13-.59.71-.89,1a16.61,16.61,0,0,1-1.74,1.67c-.28.23-.53.43-.77.59s-.45.31-.62.42l-.34.2a.74.74,0,0,0,1,.34l.16-.07.43-.24c.18-.1.39-.23.62-.39s.48-.35.75-.56a15.94,15.94,0,0,0,1.7-1.58c.29-.31.57-.64.86-1s.56-.7.81-1.08.53-.74.75-1.12.47-.75.66-1.12l.57-1.08C300.65,194.91,300.8,194.58,300.94,194.27Z"/><path class="cls-28" d="M305.1,207.27a20.39,20.39,0,0,0-9.37-3.46,8.19,8.19,0,0,1-5.05-2.42,20.24,20.24,0,0,0-8.56-5.13c-7.55-2.36-18.22,6.41-19.75,19.56s1.76,18.7,13,24.07,17.59,4.47,26.88-5S311.66,211.68,305.1,207.27Z"/><path class="cls-36" d="M305.24,207.34c-.26-.18-.51-.34-.77-.5,1.83,6.19-.14,15.19-6.79,21.94-9.28,9.44-15.67,10.34-26.88,5a35.11,35.11,0,0,1-7.32-4.47c1.83,4.53,5.64,7.63,12,10.68,11.21,5.37,17.6,4.47,26.89-5S311.81,211.75,305.24,207.34Z"/><path class="cls-5" d="M280.23,200.56a5.87,5.87,0,0,0-7.16,6.5,5.86,5.86,0,0,0,10.83-3.82A5.92,5.92,0,0,0,280.23,200.56Z"/><path class="cls-6" d="M288.24,184.79c-6,18.1,6,16.28,6,16.28S304.61,194.6,288.24,184.79Z"/><path class="cls-37" d="M288.24,184.79l6,16.28S282.21,202.89,288.24,184.79Z"/><path class="cls-6" d="M233.59,50.61c3.63,19.67,13.78,11.9,13.78,11.9S253.58,51.33,233.59,50.61Z"/><path class="cls-38" d="M233.59,50.61l13.78,11.9S237.22,70.28,233.59,50.61Z"/><path class="cls-6" d="M167.49,85.09c3.62,19.67,13.77,11.9,13.77,11.9S187.47,85.81,167.49,85.09Z"/><path class="cls-38" d="M167.49,85.09,181.26,97S171.11,104.76,167.49,85.09Z"/><path class="cls-6" d="M172.16,2.61c-3.63,19.67-13.78,11.89-13.78,11.89S152.17,3.33,172.16,2.61Z"/><path class="cls-38" d="M172.16,2.61,158.38,14.5S168.53,22.28,172.16,2.61Z"/><path class="cls-6" d="M81.46,0c16.9,10.69,5.91,17.21,5.91,17.21S74.69,18.82,81.46,0Z"/><path class="cls-38" d="M81.46,0l5.91,17.21S98.36,10.69,81.46,0Z"/><path class="cls-6" d="M283.53,101.67c-3.62,19.67-13.77,11.89-13.77,11.89S263.54,102.39,283.53,101.67Z"/><path class="cls-38" d="M283.53,101.67l-13.77,11.89S279.91,121.34,283.53,101.67Z"/><path class="cls-39" d="M285.2,210s1.54-11.31.67-13.6a1.53,1.53,0,0,0-2.66-.66s1,3.92-2.5,8.37S285.2,210,285.2,210Z"/><path class="cls-40" d="M235.53,214.75c.62-.28,2,.61,2.46.64,6.82.4,13.14,4,20,3.83a25.41,25.41,0,0,0,2.76-.18,18.57,18.57,0,0,0,7.9-2.76c4.9-3.6,9.61-7.93,12.9-13.43.12-.36.84,0,1.69.87a11,11,0,0,1,1.81,2.5C280.91,215.88,266.85,239.75,235.53,214.75Z"/><path class="cls-41" d="M285,206.22c2.9,5.49.38,12.37-3.44,17a30.66,30.66,0,0,1-2.32,2.47c-5.71,5.61-13.81,7.34-21.32,5.9a27.49,27.49,0,0,1-3.18-.82c-.9-.31-1.79-.66-2.68-1-5.91-2.74-11.86-6.66-14.82-12.54-.3-.6-2.39-1.92-1.85-2.4a.47.47,0,0,1,.12-.07C266.85,239.75,280.91,215.88,285,206.22Z"/><path class="cls-39" d="M238.55,215.48l-1,2s-2.61-1.9-2.44-2.69S238,215.44,238.55,215.48Z"/><path class="cls-42" d="M251.3,225a23.55,23.55,0,0,0,13.74.95c12.35-3,19.12-16,19.19-16.09a.48.48,0,0,0-.86-.44c-.06.13-6.65,12.72-18.56,15.59-7,1.7-14.53-.27-22.31-5.86a.48.48,0,0,0-.67.11.47.47,0,0,0,.11.67A38.76,38.76,0,0,0,251.3,225Z"/><path class="cls-39" d="M275.05,206.53s8.8-7.26,9.72-9.53-1.51-2.3-1.51-2.3-1.91,3.57-7.52,4.46S275.05,206.53,275.05,206.53Z"/><path class="cls-40" d="M235.33,176.33c.64.22,1,1.8,1.37,2.14,4.74,4.92,6.92,11.88,12.08,16.36a24,24,0,0,0,2.15,1.74,19.08,19.08,0,0,0,5.57,2.81,15.86,15.86,0,0,0,2.11.52,46.88,46.88,0,0,0,18.58-1.12c.33-.18.64.56.65,1.8a11.29,11.29,0,0,1-.36,3.07C267.9,208,241.38,216,235.33,176.33Z"/><path class="cls-41" d="M277.48,203.65c-1.6,6-8.12,9.34-14.08,10.17a32,32,0,0,1-3.38.24c-8,.24-15.13-4-19.67-10.14a27.46,27.46,0,0,1-1.78-2.75c-.45-.84-.88-1.7-1.26-2.59-2.49-6-4.2-12.93-2.38-19.26.18-.64-.46-3,.26-3a.32.32,0,0,1,.14,0C241.38,216,267.9,208,277.48,203.65Z"/><path class="cls-39" d="M237.06,178.92l-2.13.81s-.63-3.17,0-3.63S236.69,178.53,237.06,178.92Z"/><path class="cls-42" d="M240,194.55a23.54,23.54,0,0,0,9.45,10c11.1,6.18,24.87,1.25,25,1.2a.48.48,0,0,0,.28-.62.47.47,0,0,0-.61-.28c-.14,0-13.51,4.83-24.22-1.14-6.31-3.52-10.49-10.07-12.41-19.44a.48.48,0,0,0-.56-.38.49.49,0,0,0-.38.57A38.31,38.31,0,0,0,240,194.55Z"/><path class="cls-5" d="M274.84,202.58a11.7,11.7,0,0,1-2.89,1.15,16.3,16.3,0,0,1-3.05.49,13.7,13.7,0,0,1-3.13-.16,9.1,9.1,0,0,1-3-1.06.62.62,0,0,1-.21-.85.6.6,0,0,1,.52-.3h0l2.83,0,2.8-.14q1.41-.1,2.85-.18c1-.06,1.94-.11,2.92-.09h0a.62.62,0,0,1,.61.63A.64.64,0,0,1,274.84,202.58Z"/><path class="cls-5" d="M282.33,205.69a11.51,11.51,0,0,1-1.16,2.88,15.77,15.77,0,0,1-1.76,2.54,14.09,14.09,0,0,1-2.28,2.15,8.71,8.71,0,0,1-2.85,1.44.62.62,0,0,1-.76-.43.61.61,0,0,1,.15-.59l0,0,1.95-2.05,1.84-2.12c.6-.73,1.2-1.46,1.83-2.18s1.26-1.48,2-2.17l0,0a.62.62,0,0,1,.88,0A.6.6,0,0,1,282.33,205.69Z"/><path class="cls-43" d="M209.84,211c-5.09,1.51-10.29-.9-10.29-.9L218,204.63C218.56,206.64,214.92,209.49,209.84,211Z"/><path class="cls-44" d="M218,204.63l-18.41,5.46s3-4.85,8.13-6.36S217.37,202.63,218,204.63Z"/><path class="cls-43" d="M227.68,202c4.25-3.17,5.42-8.78,5.42-8.78l-15.38,11.5C219,206.43,223.44,205.21,227.68,202Z"/><path class="cls-44" d="M217.72,204.75l15.38-11.5s-5.71-.46-10,2.72S216.47,203.08,217.72,204.75Z"/><path class="cls-39" d="M221.86,210.91a.88.88,0,0,0,.41-1.13c-5.44-12.72-12.92-12.41-13.23-12.39a.88.88,0,1,0,.1,1.75c.09,0,6.62-.12,11.52,11.33a.87.87,0,0,0,1.15.46Z"/><path class="cls-27" d="M210.34,228.41a18.14,18.14,0,1,0,8.08-24.35A18.15,18.15,0,0,0,210.34,228.41Z"/><path class="cls-45" d="M242.85,212.3a18.14,18.14,0,0,1-34.31,9.43l-.08-.18a18.14,18.14,0,1,0,34.39-9.25Z"/><path class="cls-5" d="M225.23,210.33a4.45,4.45,0,1,0,2-6A4.43,4.43,0,0,0,225.23,210.33Z"/><path class="cls-46" d="M220.88,170.51a.91.91,0,0,0-1.43-.46c-5.13,3.91-22.42,7.56-29.38,13.86-5.72,5.18-4.46,12.14-3.55,15.14a.9.9,0,0,0,1.49.39c3.15-3.08,7.58-3.12,22.12-10.47C222.91,182.51,221.85,173.8,220.88,170.51Z"/><path class="cls-47" d="M196.18,191.16a3.89,3.89,0,1,1-2.53-4.88A3.89,3.89,0,0,1,196.18,191.16Z"/><path class="cls-48" d="M196.16,188.79a3.46,3.46,0,0,1-.11.52,3.89,3.89,0,0,1-7.4,0,3.88,3.88,0,1,0,7.51-.54Z"/><path class="cls-47" d="M216.61,180a3.89,3.89,0,1,1-2.53-4.88A3.89,3.89,0,0,1,216.61,180Z"/><path class="cls-48" d="M216.6,177.67c0,.17-.06.34-.11.52a3.88,3.88,0,0,1-7.4,0,3.88,3.88,0,1,0,7.51-.54Z"/><path class="cls-5" d="M214.39,176.4c0,.5-.68.93-1.56,1s-1.61-.34-1.63-.84.68-.92,1.56-1S214.37,175.9,214.39,176.4Z"/><path class="cls-47" d="M206.54,186.05a4.62,4.62,0,1,1-3-5.8A4.62,4.62,0,0,1,206.54,186.05Z"/><path class="cls-48" d="M206.52,183.23a3.42,3.42,0,0,1-.13.62,4.61,4.61,0,0,1-8.78,0,4.61,4.61,0,0,0,8.93,2.18A4.53,4.53,0,0,0,206.52,183.23Z"/><path class="cls-49" d="M220.75,171a.94.94,0,0,0-1-1.19c-6.69.6-24-5.77-33.6-4.06-7.91,1.39-10.66,8.24-11.52,11.38a.94.94,0,0,0,1.1,1.17c4.49-1,8.42,1.45,25.32,3C215.89,182.69,219.78,174.41,220.75,171Z"/><path class="cls-50" d="M204.32,178.26c-16.89-1.58-20.83-4-25.31-3a.94.94,0,0,1-1.1-1.17,18.25,18.25,0,0,1,3.12-6.35,16.4,16.4,0,0,0-6.41,9.39.94.94,0,0,0,1.1,1.17c4.49-1,8.42,1.45,25.32,3,9.79.91,14.82-2.37,17.38-5.7C215.45,177.56,211,178.88,204.32,178.26Z"/><path class="cls-18" d="M189.08,166.79a9.25,9.25,0,0,0-4.68.86,1.2,1.2,0,0,0,.2,2.22c4.6,1.27,11.15.16,11.76-.78C197.06,168,193.9,167,189.08,166.79Z"/><path class="cls-51" d="M239.25,269.12c-11.26-9.55-4.49-23.88-1.87-28.47L240,243.1,237.86,245a1.48,1.48,0,0,0,.56,2.06c1.32.75,10.76,6.15,11.42,5.22l0-.07,5.27,4.89c-.13,0-.23,0-.27.11-.62,1,4.48,10.1,5.23,11.42a1.49,1.49,0,0,0,2.07.56l2.6-2.88.14-.14,2.72,2.52C263.88,271.93,252.12,280,239.25,269.12Z"/><path class="cls-52" d="M262.17,269.23a1.49,1.49,0,0,1-2.07-.56c-.75-1.32-5.85-10.45-5.23-11.42,0-.07.14-.1.27-.11l9.77,9.07-.14.14Z"/><path class="cls-52" d="M238.42,247.1a1.48,1.48,0,0,1-.56-2.06L240,243.1l9.86,9.15,0,.07C249.18,253.25,239.74,247.85,238.42,247.1Z"/><path class="cls-52" d="M237,272.37c-17.56-15.06-1.08-33.1-1.08-33.1l1.5,1.38c-2.62,4.59-9.39,18.92,1.87,28.47,12.87,10.92,24.63,2.81,28.38-.39l2.09,1.94S254.16,287.12,237,272.37Z"/><path class="cls-52" d="M243,269.54,240.74,267,238,264.25a1.49,1.49,0,0,1,.68-2c1.35-.68,10.74-5.28,11.68-4.61s-4.54,10.08-5.3,11.38A1.48,1.48,0,0,1,243,269.54Z"/><path class="cls-52" d="M235.83,258.88l.08-3.41-.12-3.87a1.48,1.48,0,0,1,1.88-1c1.45.42,11.45,3.47,11.68,4.6s-10.19,4.27-11.64,4.71A1.48,1.48,0,0,1,235.83,258.88Z"/><path class="cls-52" d="M256.79,272.28l-3.4,0-3.87.25a1.48,1.48,0,0,1-1.09-1.84c.38-1.47,3.09-11.57,4.21-11.83s4.61,10,5.09,11.47A1.48,1.48,0,0,1,256.79,272.28Z"/><path class="cls-53" d="M138.26,102.86c-8.63-7.32-3.44-18.3-1.44-21.81l2,1.87-1.65,1.49a1.14,1.14,0,0,0,.43,1.58c1,.58,8.24,4.71,8.75,4a.14.14,0,0,0,0-.06l4,3.75a.26.26,0,0,0-.21.09c-.48.74,3.44,7.73,4,8.74a1.14,1.14,0,0,0,1.58.43l2-2.2.12-.11,2.08,1.93C157.12,105,148.11,111.22,138.26,102.86Z"/><path class="cls-54" d="M155.81,102.94a1.14,1.14,0,0,1-1.58-.43c-.57-1-4.49-8-4-8.74a.26.26,0,0,1,.21-.09l7.49,6.95-.12.11Z"/><path class="cls-54" d="M137.62,86a1.14,1.14,0,0,1-.43-1.58l1.65-1.49,7.55,7a.14.14,0,0,1,0,.06C145.86,90.7,138.63,86.57,137.62,86Z"/><path class="cls-27" d="M136.5,105.34C123.05,93.81,135.68,80,135.68,80l1.14,1.06c-2,3.51-7.19,14.49,1.44,21.81,9.85,8.36,18.86,2.15,21.74-.3l1.6,1.48S149.68,116.64,136.5,105.34Z"/><path class="cls-54" d="M141.13,103.18l-1.73-2-2.09-2.11a1.13,1.13,0,0,1,.52-1.55c1-.52,8.23-4,8.95-3.53s-3.48,7.72-4.06,8.72A1.14,1.14,0,0,1,141.13,103.18Z"/><path class="cls-54" d="M135.63,95l.07-2.61-.09-3a1.14,1.14,0,0,1,1.44-.79c1.11.33,8.77,2.67,8.94,3.53s-7.8,3.27-8.91,3.6A1.14,1.14,0,0,1,135.63,95Z"/><path class="cls-54" d="M151.69,105.28l-2.6,0-3,.19a1.13,1.13,0,0,1-.83-1.41c.29-1.12,2.36-8.86,3.22-9.06s3.53,7.69,3.91,8.79A1.14,1.14,0,0,1,151.69,105.28Z"/><path class="cls-37" d="M305.69,250c-8.4-5.52-.93-9.92-.93-9.92-3.67-3.77.45-10.13.45-10.13s-6.08,4.52-10.08,1.1c0,0-3.91,7.74-10-.28,0,0-2.48,3.72-5.51,3.55,0,0,3.62,7.59-.73,12.23,0,0,4.9,4.25,3.71,7.49,3.15-1.4,7.71,3.21,7.71,3.21,4.35-4.64,12.15-1.52,12.15-1.52C302.14,252.67,305.69,250,305.69,250Z"/><path class="cls-6" d="M305.21,229.91s-6.08,4.52-10.08,1.1c0,0-3.91,7.74-10-.28,0,0-2.48,3.72-5.51,3.55,0,0,3.62,7.59-.73,12.23,0,0,4.9,4.25,3.71,7.49Z"/><path class="cls-37" d="M301.09,270.36c-1.24-8.14,5.52-6,5.52-6,.29-4.3,6.41-5.28,6.41-5.28s-6.08-1.22-6.2-5.53c0,0-6.84,1.87-5.29-6.21,0,0-3.61.53-5.18-1.4,0,0-2.62,6.36-7.83,6.26,0,0,.1,5.31-2.52,6.36,2.58,1.15,2.28,6.45,2.28,6.45,5.2.1,7.58,6.56,7.58,6.56C297.5,269.69,301.09,270.36,301.09,270.36Z"/><path class="cls-6" d="M313,259.07s-6.08-1.22-6.2-5.53c0,0-6.84,1.87-5.29-6.21,0,0-3.61.53-5.18-1.4,0,0-2.62,6.36-7.83,6.26,0,0,.1,5.31-2.52,6.36Z"/><path class="cls-37" d="M268.21,236.18c8.08,1.56,6.21-5.29,6.21-5.29,4.31-.11,5.53-6.2,5.53-6.2s1,6.13,5.28,6.41c0,0-2.13,6.77,6,5.53,0,0-.67,3.59,1.2,5.23,0,0-6.45,2.38-6.55,7.58,0,0-5.3-.3-6.45,2.28-1.06-2.62-6.37-2.53-6.37-2.53.11-5.2-6.25-7.83-6.25-7.83C268.74,239.8,268.21,236.18,268.21,236.18Z"/><path class="cls-6" d="M280,224.69s1,6.13,5.28,6.41c0,0-2.13,6.77,6,5.53,0,0-.67,3.59,1.2,5.23,0,0-6.45,2.38-6.55,7.58,0,0-5.3-.3-6.45,2.28Z"/><path class="cls-55" d="M275.54,284.3a8.51,8.51,0,1,1,.23-12A8.5,8.5,0,0,1,275.54,284.3Z"/><path class="cls-56" d="M277.67,275.37a8.51,8.51,0,0,1-16.54,2.71,8.51,8.51,0,1,0,16.54-2.71Z"/><path class="cls-57" d="M270.08,274.89a1.88,1.88,0,1,1,.06-2.66A1.88,1.88,0,0,1,270.08,274.89Z"/><circle class="cls-55" cx="255.68" cy="281.14" r="8.51" transform="translate(-111.43 182.95) rotate(-32.74)"/><path class="cls-56" d="M263.71,278.34a8.51,8.51,0,0,1-16.54,2.72,8.51,8.51,0,1,0,16.54-2.72Z"/><path class="cls-57" d="M256.12,277.87a1.88,1.88,0,1,1,.05-2.66A1.88,1.88,0,0,1,256.12,277.87Z"/><path class="cls-55" d="M265,273.37a8.51,8.51,0,1,1,.24-12A8.51,8.51,0,0,1,265,273.37Z"/><path class="cls-56" d="M267.15,264.44a8.5,8.5,0,0,1-16.53,2.71,8.5,8.5,0,1,0,16.53-2.71Z"/><path class="cls-57" d="M259.57,264a1.88,1.88,0,1,1,.05-2.66A1.89,1.89,0,0,1,259.57,264Z"/><circle class="cls-55" cx="286.77" cy="261.69" r="8.51" transform="translate(-64.25 95.84) rotate(-17.09)"/><path class="cls-56" d="M294.8,258.89a8.51,8.51,0,0,1-14.64,5.81,8.37,8.37,0,0,1-1.9-3.1,8.51,8.51,0,1,0,16.54-2.71Z"/><path class="cls-57" d="M287.21,258.41a1.88,1.88,0,1,1,.05-2.66A1.88,1.88,0,0,1,287.21,258.41Z"/><path class="cls-55" d="M278.71,270.8a8.51,8.51,0,1,1,.23-12A8.52,8.52,0,0,1,278.71,270.8Z"/><path class="cls-56" d="M280.84,261.86a8.51,8.51,0,0,1-16.54,2.72,8.51,8.51,0,1,0,16.54-2.72Z"/><path class="cls-57" d="M273.25,261.39a1.88,1.88,0,1,1,.05-2.66A1.88,1.88,0,0,1,273.25,261.39Z"/><path class="cls-55" d="M289.5,282a8.52,8.52,0,1,1,.23-12A8.51,8.51,0,0,1,289.5,282Z"/><path class="cls-56" d="M291.63,273.08a8.5,8.5,0,0,1-16.54,2.71,8.51,8.51,0,1,0,16.54-2.71Z"/><path class="cls-57" d="M284,272.6a1.88,1.88,0,1,1,0-2.66A1.88,1.88,0,0,1,284,272.6Z"/><path class="cls-55" d="M267.92,259.58a8.51,8.51,0,1,1,.23-12A8.5,8.5,0,0,1,267.92,259.58Z"/><path class="cls-56" d="M270.05,250.65a8.51,8.51,0,0,1-16.54,2.72,8.51,8.51,0,1,0,16.54-2.72Z"/><path class="cls-57" d="M262.46,250.18a1.88,1.88,0,1,1,.05-2.66A1.88,1.88,0,0,1,262.46,250.18Z"/><path class="cls-55" d="M282.15,256.89a8.51,8.51,0,1,1,.23-12A8.51,8.51,0,0,1,282.15,256.89Z"/><path class="cls-56" d="M284.28,248a8.51,8.51,0,0,1-16.54,2.71A8.51,8.51,0,1,0,284.28,248Z"/><path class="cls-57" d="M276.69,247.48a1.88,1.88,0,1,1,.05-2.66A1.88,1.88,0,0,1,276.69,247.48Z"/><path class="cls-32" d="M151.64,121.44c3.09-4.26.79-9.38-.14-11.09a1.28,1.28,0,0,1,0-1.23l.51-1a1.29,1.29,0,0,1,1.37-.67l1.07.19a1.3,1.3,0,0,1,1,.77c.76,1.79,3.35,6.77,8.61,7,6.42.26,14.36,2.71,16.91,8s-6.3,11.59-10.31,14a4.43,4.43,0,0,0-1.34,1.75,2,2,0,0,1-2.28,1.1,4.56,4.56,0,0,0-2.21,0c-4.36,1.66-14.8,4.7-17.36-.58S147.86,126.64,151.64,121.44Z"/><path class="cls-11" d="M154.16,120.22c1.45-3.57-1.15-8.91-2-10.43a1.25,1.25,0,0,1-.11-.91h0a1.28,1.28,0,0,1,1.8-.87,1.27,1.27,0,0,1,.64.65c.69,1.58,3.28,6.93,7,8,4.35,1.26,10.05,4.79,12.61,10.08s-2.37,9.69-4.67,11.25a2,2,0,0,0-.4.61,2,2,0,0,1-2.34,1.13,2,2,0,0,0-.72-.07c-2.66.84-9.17,2-11.73-3.31S152.46,124.42,154.16,120.22Z"/><path class="cls-32" d="M155.09,114.35a39.7,39.7,0,0,1,.32,7,17.23,17.23,0,0,1-.46,3.35l-.1.4-.1.47a6.87,6.87,0,0,0-.18,1,12.77,12.77,0,0,0-.12,2,18.22,18.22,0,0,0,.42,3.88c.09.32.15.65.27,1l.35.93a10.12,10.12,0,0,0,1,1.73,8.4,8.4,0,0,0,3.11,2.65,6.17,6.17,0,0,0,3.91.53.17.17,0,0,0,.13-.2.15.15,0,0,0-.08-.11h0a10.83,10.83,0,0,1-2.67-2,11.5,11.5,0,0,1-1.74-2.53c-.48-.91-.91-1.85-1.32-2.84a11.6,11.6,0,0,1-.88-3.12,11,11,0,0,1-.1-1.61,6.85,6.85,0,0,1,0-.79l0-.4.07-.48a19.63,19.63,0,0,0,0-3.76,33,33,0,0,0-.62-3.6,32,32,0,0,0-1-3.48.16.16,0,0,0-.2-.1.16.16,0,0,0-.11.17Z"/><path class="cls-32" d="M156.56,113.63a38.63,38.63,0,0,0,5.33,4.62,16.78,16.78,0,0,0,2.92,1.72l.37.17.44.21a7.43,7.43,0,0,1,.88.47,13.87,13.87,0,0,1,1.6,1.12,18.52,18.52,0,0,1,2.79,2.74,9.63,9.63,0,0,1,.58.8c.17.28.35.56.51.85a9.57,9.57,0,0,1,.72,1.89,8.53,8.53,0,0,1,.16,4.08,6.11,6.11,0,0,1-2,3.39.16.16,0,0,1-.23,0,.22.22,0,0,1,0-.13h0a10.12,10.12,0,0,0-.85-6.29,29.35,29.35,0,0,0-1.41-2.8,11.85,11.85,0,0,0-1.89-2.63,11.15,11.15,0,0,0-1.21-1.07,4.62,4.62,0,0,0-.64-.45l-.34-.22-.42-.25a19.52,19.52,0,0,1-2.93-2.36,31.09,31.09,0,0,1-2.44-2.71,31.53,31.53,0,0,1-2.13-2.92.16.16,0,0,1,.05-.22.17.17,0,0,1,.2,0Z"/><path class="cls-58" d="M147.43,139.67a12.59,12.59,0,0,1-.46-8.38c3.91,4.07,14,9.7,34.4-6.33.5,4.92-7.11,10.3-10.75,12.47a4.43,4.43,0,0,0-1.34,1.75,2,2,0,0,1-2.28,1.1,4.56,4.56,0,0,0-2.21,0C160.43,141.91,150,145,147.43,139.67Z"/><path class="cls-18" d="M169.42,122.49c2.82,1.16,5.53,1.07,6.05-.2s-1.33-3.24-4.15-4.4-5.53-1.08-6,.19S166.6,121.32,169.42,122.49Z"/><path class="cls-59" d="M176.53,168.23a16.42,16.42,0,0,0-1.27-11.37,21.39,21.39,0,0,0-18-12.28,16.41,16.41,0,0,0-11,3c-9.2,6.86.49,15.59,3.19,16.37l3.09.89a11,11,0,0,1,5.7,3.88l2,2.55C161.84,173.48,173.51,179.3,176.53,168.23Z"/><path class="cls-60" d="M176.53,168.23a14.61,14.61,0,0,0,.5-3.34c-3.18,10.54-14.6,4.84-16.29,2.63l-2-2.54a11.06,11.06,0,0,0-5.71-3.89L150,160.2c-1.77-.5-6.5-4.4-7-8.95-2.82,6,4.18,12,6.41,12.68l3.09.89a11,11,0,0,1,5.7,3.88l2,2.55C161.84,173.48,173.51,179.3,176.53,168.23Z"/><path class="cls-61" d="M170.48,167.7a12.36,12.36,0,0,0-.71-8.5,14.67,14.67,0,0,0-13-8.85,12.37,12.37,0,0,0-8.17,2.46,8.35,8.35,0,0,0-2.22,2.43,4.27,4.27,0,0,0,1.19,5.53A7.55,7.55,0,0,0,149.7,162l3.35,1c-1.09,2.13-3,5.3-4.74,5.91-2.73.93-6.29,2.92-5.77,4.74s2.35,3.66,4.46,5.1,4.49,2.47,6.38,2.29,2.43-4.22,2.3-7.11c-.09-1.85,2.12-4.7,3.7-6.49h.29l2.22,2.89a6.5,6.5,0,0,0,1.4,1.22,4.25,4.25,0,0,0,5.71-.78A8.49,8.49,0,0,0,170.48,167.7Z"/><path class="cls-62" d="M166.43,166.06a6.57,6.57,0,0,0-1.39-4.28,14.76,14.76,0,0,0-8.6-5.86,6.58,6.58,0,0,0-4.49.27c-3.41,1.83,1.37,5.77,2.58,6.25l1.39.56a7.81,7.81,0,0,1,2.72,1.86c.34.36.71.74,1,1.08C160.56,166.89,166,169.9,166.43,166.06Z"/><path class="cls-63" d="M142.51,173a1.39,1.39,0,0,0,0,.61c.52,1.83,2.35,3.66,4.46,5.1s4.49,2.47,6.38,2.29,2.41-4,2.31-6.89C153.5,176.23,148.65,179.33,142.51,173Z"/><path class="cls-59" d="M77.74,147.19a18.93,18.93,0,1,0,18.92-18.92A18.92,18.92,0,0,0,77.74,147.19Z"/><path class="cls-64" d="M80.5,147.19A16.17,16.17,0,1,0,96.66,131,16.17,16.17,0,0,0,80.5,147.19Z"/><path class="cls-65" d="M90.52,147.19a6.14,6.14,0,1,0,6.14-6.14A6.13,6.13,0,0,0,90.52,147.19Z"/><path class="cls-18" d="M85.6,138.66c.75,1.36,3.54,1.25,6.23-.23s4.26-3.79,3.51-5.15-3.53-1.24-6.22.24S84.86,137.31,85.6,138.66Z"/><path class="cls-66" d="M97.5,137.88l-.84,2.25-.83-2.25A1.44,1.44,0,0,1,97.5,137.88Z"/><path class="cls-66" d="M95.83,156.9l.83-2.25.84,2.25A1.44,1.44,0,0,1,95.83,156.9Z"/><path class="cls-66" d="M101.44,139.12l-1.71,1.69.2-2.39A1.44,1.44,0,0,1,101.44,139.12Z"/><path class="cls-66" d="M91.88,155.66,93.6,154l-.2,2.4A1.46,1.46,0,0,1,91.88,155.66Z"/><path class="cls-66" d="M104.49,141.92l-2.27.81,1.19-2.1A1.47,1.47,0,0,1,104.49,141.92Z"/><path class="cls-66" d="M88.84,152.87l2.26-.81-1.19,2.09A1.45,1.45,0,0,1,88.84,152.87Z"/><path class="cls-66" d="M106.07,145.74l-2.4-.23,2-1.39A1.46,1.46,0,0,1,106.07,145.74Z"/><path class="cls-66" d="M87.26,149l2.39.23-2,1.39A1.46,1.46,0,0,1,87.26,149Z"/><path class="cls-66" d="M105.88,149.87l-2.07-1.22,2.37-.43A1.45,1.45,0,0,1,105.88,149.87Z"/><path class="cls-66" d="M87.44,144.92l2.08,1.21-2.37.43A1.44,1.44,0,0,1,87.44,144.92Z"/><path class="cls-66" d="M100.7,156l-.41-2.37,1.85,1.54A1.43,1.43,0,0,1,100.7,156Z"/><path class="cls-66" d="M92.63,138.73l.4,2.37-1.85-1.53A1.46,1.46,0,0,1,92.63,138.73Z"/><path class="cls-66" d="M104,153.53l-1.37-2,2.32.61A1.44,1.44,0,0,1,104,153.53Z"/><path class="cls-66" d="M89.35,141.25l1.37,2-2.33-.61A1.44,1.44,0,0,1,89.35,141.25Z"/><path class="cls-67" d="M111.75,135.78a18.7,18.7,0,0,1,.77,5.32,18.92,18.92,0,0,1-34,11.42,18.92,18.92,0,1,0,33.24-16.74Z"/><path class="cls-29" d="M94.66,71.44,98,81.69a39.64,39.64,0,0,0-20.52,22.5A28.13,28.13,0,0,1,76.35,107,21.21,21.21,0,0,1,75,109.46c-3.14,6.12-11.2,9.68-17.62,7a9.31,9.31,0,0,1-1.31-.63C60.74,92.76,83.19,77.74,94.66,71.44Z"/><path class="cls-29" d="M81.64,75.11l2.26-1.2,9.84-5.25.92,2.78c-11.47,6.3-33.92,21.32-38.58,44.38-5.25-3-6.92-10.61-3.88-16.27.3-.64.63-1.28,1-1.9C59.57,86.91,70.73,80.55,81.64,75.11Z"/><path class="cls-30" d="M81.64,75.11l2.26-1.2,9.84-5.25.92,2.78c-11.47,6.3-33.92,21.32-38.58,44.38-5.25-3-6.92-10.61-3.88-16.27.3-.64.63-1.28,1-1.9C59.57,86.91,70.73,80.55,81.64,75.11Z"/><path class="cls-31" d="M84.59,70.3S94.44,65,99.36,71.81l5.43-2.91.79,1.62.91,1.55L101.06,75c3,7.89-6.92,13.13-6.92,13.13-2.48-4.78.58-10.59,1.64-12.35C93.73,75.68,87.19,75,84.59,70.3Z"/><path class="cls-31" d="M89.36,79.44a10.13,10.13,0,0,0,6.42-.76c2.93-1.57,4.81-3.77,4.19-4.92s-3.49-.82-6.42.75A10.05,10.05,0,0,0,89.36,79.44Z"/><path class="cls-18" d="M73.62,107.32c0,.11-.05.22-.08.33-.8,2.69-2.67,5.72-5.64,6.3-3.23.63-2.71-2.68-1.84-4.65a8.15,8.15,0,0,1,3.54-4.25C71.48,104.16,74.19,104.74,73.62,107.32Z"/></g></g></g></svg>